<?xml version="1.0" encoding="UTF-8" standalone="no"?>
<!DOCTYPE svg PUBLIC "-//W3C//DTD SVG 1.1//EN" "http://www.w3.org/Graphics/SVG/1.1/DTD/svg11.dtd">
<svg version="1.1" xmlns="http://www.w3.org/2000/svg" xmlns:xlink="http://www.w3.org/1999/xlink" preserveAspectRatio="xMidYMid meet" viewBox="-0.6111644852583424 -1.000039692468376 427.2223289705166 78.24528802266673" width="423.22" height="74.25"><defs><path d="M160.21 69.91L156.36 69.91C156.36 69.61 156.36 69.43 156.36 69.4C156.6 69.41 156.85 69.38 157.09 69.31C157.23 69.27 157.34 69.16 157.41 69.03C157.46 68.86 157.49 68.68 157.48 68.5C157.48 68.03 157.48 64.21 157.48 63.74C157.51 63.49 157.43 63.24 157.28 63.04C157 62.87 156.68 62.8 156.36 62.84C156.36 62.81 156.36 62.63 156.36 62.32L160.21 62.32C160.21 62.63 160.21 62.81 160.21 62.84C159.96 62.83 159.72 62.86 159.48 62.94C159.34 62.98 159.22 63.08 159.16 63.21C159.1 63.38 159.08 63.56 159.08 63.74C159.08 64.21 159.08 68.03 159.08 68.5C159.08 68.68 159.1 68.85 159.16 69.01C159.22 69.15 159.33 69.25 159.47 69.3C159.71 69.38 159.96 69.41 160.21 69.4C160.21 69.47 160.21 69.64 160.21 69.91Z" id="f8x4oKlXr"></path><path d="M165.27 69.41C165.06 69.65 164.79 69.82 164.48 69.92C164.11 70.05 163.72 70.11 163.33 70.1C163.03 70.1 162.73 70.07 162.44 70.01C162.16 69.96 161.9 69.88 161.65 69.75C161.64 69.77 161.56 69.88 161.43 70.07L161 70.07L160.94 68.61C161.22 68.61 161.38 68.61 161.41 68.61C161.52 68.89 161.72 69.13 161.98 69.29C162.37 69.51 162.81 69.61 163.26 69.58C163.41 69.58 163.57 69.57 163.72 69.55C163.89 69.53 164.05 69.47 164.19 69.38C164.34 69.29 164.43 69.13 164.42 68.95C164.42 68.79 164.33 68.65 164.18 68.59C163.9 68.47 163.61 68.38 163.31 68.31C162.54 68.11 162.18 67.97 162.05 67.94C161.74 67.83 161.45 67.66 161.22 67.43C160.99 67.21 160.86 66.9 160.87 66.58C160.87 66.15 161.1 65.74 161.48 65.53C161.97 65.26 162.52 65.12 163.07 65.15C163.41 65.14 163.74 65.17 164.06 65.25C164.27 65.3 164.48 65.38 164.68 65.47C164.69 65.45 164.73 65.35 164.81 65.18L165.26 65.18L165.26 66.48C164.99 66.48 164.83 66.48 164.8 66.48C164.75 66.31 164.66 66.17 164.52 66.06C164.35 65.92 164.16 65.82 163.94 65.76C163.67 65.69 163.39 65.66 163.11 65.66C162.85 65.66 162.58 65.69 162.33 65.74C162.07 65.8 161.94 65.93 161.94 66.14C161.93 66.22 161.96 66.3 162.01 66.35C162.09 66.43 162.18 66.48 162.27 66.51C162.49 66.59 162.7 66.65 162.92 66.7C163.39 66.82 163.42 66.83 163.48 66.84C164 66.96 164.5 67.15 164.97 67.41C165.38 67.65 165.6 68.11 165.56 68.58C165.57 68.88 165.46 69.18 165.27 69.41Z" id="a1lkE0rE9"></path><path d="M172.87 68.92C172.72 69.28 172.48 69.59 172.17 69.82C171.89 70.01 171.56 70.11 171.22 70.1C170.88 70.13 170.53 70.03 170.25 69.83C170.06 69.68 169.92 69.47 169.86 69.23C169.81 68.98 169.79 68.73 169.79 68.48C169.79 68.31 169.79 67.43 169.79 65.85L168.94 65.85C168.94 65.54 168.94 65.37 168.94 65.33C169.26 65.34 169.58 65.27 169.87 65.13C170.12 65 170.33 64.82 170.49 64.59C170.63 64.37 170.73 64.12 170.77 63.85C170.81 63.85 170.96 63.85 171.23 63.85L171.23 65.33L172.82 65.33L172.82 65.85L171.23 65.85C171.23 67.45 171.23 68.34 171.23 68.51C171.22 68.75 171.25 68.99 171.3 69.22C171.34 69.36 171.47 69.45 171.61 69.43C171.79 69.44 171.95 69.36 172.06 69.22C172.19 69.06 172.3 68.89 172.39 68.7C172.49 68.74 172.78 68.87 172.87 68.92Z" id="aHFvrlpUD"></path><path d="M179.47 69.91L176.59 69.91C176.59 69.61 176.59 69.43 176.59 69.4C176.78 69.42 176.97 69.37 177.12 69.26C177.22 69.16 177.28 69.01 177.27 68.86C177.27 68.67 177.27 67.17 177.27 66.98C177.27 66.81 177.26 66.64 177.23 66.48C177.21 66.33 177.14 66.19 177.04 66.07C176.91 65.94 176.74 65.88 176.56 65.89C176.37 65.89 176.19 65.94 176.02 66.03C175.85 66.12 175.71 66.25 175.6 66.4C175.51 66.56 175.44 66.72 175.41 66.9C175.38 67.09 175.36 67.28 175.36 67.47C175.36 67.57 175.36 68.34 175.36 68.44C175.36 68.63 175.37 68.82 175.39 69.01C175.41 69.13 175.47 69.23 175.57 69.3C175.71 69.38 175.88 69.41 176.04 69.4C176.04 69.43 176.04 69.61 176.04 69.91L173.11 69.91C173.11 69.61 173.11 69.43 173.11 69.4C173.3 69.41 173.48 69.38 173.66 69.32C173.76 69.28 173.85 69.2 173.88 69.09C173.91 68.92 173.93 68.75 173.92 68.58C173.92 68.11 173.92 64.36 173.92 63.89C173.94 63.69 173.9 63.49 173.79 63.32C173.58 63.2 173.34 63.15 173.11 63.18C173.11 63.14 173.11 62.97 173.11 62.67L175.36 62.19C175.36 64.46 175.36 65.72 175.36 65.97C175.57 65.75 175.8 65.55 176.05 65.38C176.35 65.21 176.69 65.13 177.04 65.15C177.24 65.15 177.43 65.17 177.62 65.23C177.81 65.28 177.98 65.37 178.14 65.48C178.28 65.57 178.4 65.7 178.48 65.85C178.65 66.17 178.73 66.54 178.71 66.91C178.71 67.08 178.71 68.42 178.71 68.58C178.69 68.8 178.73 69.03 178.83 69.23C178.91 69.34 179.12 69.4 179.47 69.4L179.47 69.91Z" id="iBQGNalmD"></path><path d="M181.67 67.45C181.67 67.56 181.69 67.86 181.7 67.9C181.72 68.15 181.77 68.39 181.85 68.62C181.94 68.86 182.1 69.07 182.31 69.23C182.56 69.41 182.86 69.49 183.17 69.48C183.42 69.47 183.66 69.42 183.89 69.33C184.18 69.21 184.44 69.01 184.62 68.74C184.66 68.77 185.01 69.01 185.05 69.04C184.6 69.75 183.79 70.16 182.95 70.1C182.55 70.1 182.16 70.04 181.78 69.92C181.45 69.8 181.14 69.63 180.88 69.4C180.64 69.19 180.45 68.92 180.32 68.62C180.19 68.32 180.12 67.99 180.12 67.66C180.12 67.22 180.23 66.79 180.45 66.41C180.67 66.02 180.99 65.7 181.39 65.49C181.81 65.25 182.29 65.14 182.78 65.15C183.23 65.13 183.68 65.25 184.08 65.48C184.41 65.68 184.68 65.98 184.86 66.33C185.02 66.68 185.11 67.06 185.11 67.45C184.42 67.45 182.01 67.45 181.67 67.45ZM183.72 66.94C183.72 65.66 182.81 65.79 182.71 65.66C182.42 65.65 182.14 65.78 181.97 66.01C181.78 66.29 181.68 66.61 181.68 66.94C182.09 66.94 183.31 66.94 183.72 66.94Z" id="edIWdjiUW"></path><path d="M192.99 69.8C192.55 70 192.08 70.1 191.61 70.1C191.15 70.1 190.69 70.01 190.27 69.82C189.86 69.65 189.5 69.36 189.24 68.99C188.97 68.59 188.83 68.11 188.84 67.62C188.8 66.91 189.11 66.22 189.67 65.78C190.24 65.35 190.93 65.13 191.64 65.15C192.15 65.13 192.65 65.25 193.11 65.48C193.5 65.69 193.82 66 194.04 66.38C194.25 66.76 194.36 67.18 194.35 67.61C194.38 68.55 193.84 69.41 192.99 69.8ZM192.56 66.14C192.36 65.8 191.97 65.61 191.58 65.66C191.32 65.64 191.06 65.72 190.85 65.87C190.66 66.04 190.53 66.27 190.49 66.52C190.41 66.89 190.38 67.28 190.39 67.66C190.37 68.13 190.45 68.61 190.62 69.05C190.8 69.43 191.2 69.64 191.62 69.58C191.91 69.6 192.19 69.5 192.39 69.29C192.57 69.08 192.69 68.83 192.73 68.56C192.79 68.24 192.81 67.91 192.81 67.57C192.84 67.08 192.75 66.59 192.56 66.14Z" id="aIjDgyPm0"></path><path d="M199.68 66.54C199.55 66.66 199.39 66.73 199.21 66.73C198.99 66.72 198.78 66.61 198.65 66.42C198.6 66.34 198.54 66.28 198.47 66.21C198.41 66.17 198.34 66.15 198.26 66.15C197.96 66.16 197.69 66.35 197.58 66.63C197.42 66.93 197.34 67.27 197.34 67.61C197.34 67.71 197.34 68.48 197.34 68.58C197.32 68.8 197.36 69.03 197.46 69.23C197.54 69.34 197.75 69.4 198.09 69.4L198.39 69.4L198.39 69.91L194.91 69.91L194.91 69.4C195.09 69.4 195.19 69.4 195.21 69.4C195.68 69.4 195.72 69.24 195.78 69.22C195.87 69.02 195.9 68.8 195.89 68.58C195.89 68.42 195.89 67.11 195.89 66.95C195.9 66.77 195.87 66.58 195.81 66.41C195.76 66.3 195.66 66.22 195.54 66.2C195.33 66.15 195.12 66.13 194.91 66.14C194.91 66.11 194.91 65.94 194.91 65.63C196.22 65.34 196.95 65.18 197.1 65.15C197.18 65.55 197.23 65.95 197.25 66.36C197.36 66.14 197.5 65.94 197.66 65.76C197.83 65.58 198.02 65.43 198.24 65.31C198.43 65.21 198.66 65.15 198.88 65.15C199.15 65.13 199.41 65.22 199.61 65.4C199.78 65.56 199.88 65.79 199.88 66.03C199.89 66.22 199.82 66.41 199.68 66.54Z" id="e1uPR85Kb9"></path><path d="M206.41 69.85C205.68 69.87 204.96 69.96 204.24 70.1C204.18 69.91 204.14 69.71 204.14 69.51C203.71 69.89 203.15 70.1 202.57 70.1C202.14 70.1 201.72 69.98 201.35 69.76C200.97 69.53 200.66 69.21 200.45 68.83C200.23 68.43 200.12 67.99 200.12 67.54C200.12 67.25 200.17 66.96 200.27 66.69C200.36 66.4 200.52 66.13 200.72 65.9C200.93 65.66 201.2 65.47 201.49 65.35C201.82 65.21 202.18 65.14 202.54 65.15C202.79 65.14 203.04 65.18 203.28 65.25C203.45 65.31 203.62 65.39 203.77 65.5C203.9 65.6 204.03 65.7 204.14 65.82C204.14 65.64 204.14 64.17 204.14 63.99C204.15 63.81 204.13 63.62 204.08 63.45C204.05 63.35 203.96 63.27 203.85 63.24C203.67 63.21 203.48 63.19 203.29 63.19C203.29 63.15 203.29 62.98 203.29 62.67L205.59 62.19C205.59 65.95 205.59 68.04 205.59 68.46C205.58 68.65 205.59 68.83 205.62 69.02C205.65 69.12 205.73 69.21 205.83 69.25C206.02 69.3 206.21 69.33 206.41 69.33C206.41 69.44 206.41 69.74 206.41 69.85ZM204.14 66.52C203.98 66.33 203.79 66.15 203.58 66C203.36 65.84 203.09 65.76 202.81 65.77C202.63 65.77 202.45 65.82 202.3 65.92C202.14 66.02 202.01 66.15 201.91 66.3C201.71 66.71 201.63 67.16 201.66 67.61C201.63 68.1 201.75 68.59 202.01 69.01C202.21 69.3 202.53 69.48 202.88 69.48C203.13 69.48 203.37 69.42 203.58 69.29C203.8 69.17 203.99 68.99 204.14 68.79C204.14 68.79 204.14 66.75 204.14 66.52Z" id="aWwIUXhsu"></path><path d="M208.56 67.45C208.57 67.56 208.59 67.86 208.6 67.9C208.61 68.15 208.67 68.39 208.75 68.62C208.84 68.86 209 69.07 209.21 69.23C209.46 69.41 209.76 69.49 210.07 69.48C210.32 69.47 210.56 69.42 210.79 69.33C211.08 69.21 211.34 69.01 211.51 68.74C211.56 68.77 211.91 69.01 211.95 69.04C211.5 69.75 210.69 70.16 209.85 70.1C209.45 70.1 209.06 70.04 208.68 69.92C208.35 69.8 208.04 69.63 207.78 69.4C207.54 69.19 207.35 68.92 207.22 68.62C207.08 68.32 207.02 67.99 207.02 67.66C207.02 67.22 207.13 66.79 207.35 66.41C207.57 66.02 207.89 65.7 208.29 65.49C208.71 65.25 209.19 65.14 209.68 65.15C210.13 65.13 210.58 65.25 210.97 65.48C211.31 65.68 211.58 65.98 211.76 66.33C211.92 66.68 212.01 67.06 212.01 67.45C211.32 67.45 208.91 67.45 208.56 67.45ZM210.62 66.94C210.62 65.66 209.71 65.79 209.61 65.66C209.32 65.65 209.04 65.78 208.86 66.01C208.68 66.29 208.58 66.61 208.58 66.94C208.98 66.94 210.21 66.94 210.62 66.94Z" id="c6HoaRzP0"></path><path d="M217.26 66.54C217.13 66.66 216.97 66.73 216.79 66.73C216.57 66.72 216.36 66.61 216.23 66.42C216.18 66.34 216.12 66.28 216.05 66.21C215.99 66.17 215.91 66.15 215.84 66.15C215.54 66.16 215.27 66.35 215.16 66.63C215 66.93 214.92 67.27 214.92 67.61C214.92 67.71 214.92 68.48 214.92 68.58C214.9 68.8 214.94 69.03 215.04 69.23C215.12 69.34 215.33 69.4 215.67 69.4L215.97 69.4L215.97 69.91L212.49 69.91L212.49 69.4C212.67 69.4 212.77 69.4 212.78 69.4C213.25 69.4 213.3 69.24 213.36 69.22C213.45 69.02 213.48 68.8 213.47 68.58C213.47 68.42 213.47 67.11 213.47 66.95C213.48 66.77 213.45 66.58 213.39 66.41C213.34 66.3 213.24 66.22 213.12 66.2C212.91 66.15 212.7 66.13 212.49 66.14C212.49 66.11 212.49 65.94 212.49 65.63C213.8 65.34 214.53 65.18 214.68 65.15C214.76 65.55 214.81 65.95 214.83 66.36C214.94 66.14 215.08 65.94 215.24 65.76C215.41 65.58 215.6 65.43 215.82 65.31C216.01 65.21 216.24 65.15 216.46 65.15C216.73 65.13 216.99 65.22 217.19 65.4C217.36 65.56 217.46 65.79 217.46 66.03C217.47 66.22 217.4 66.41 217.26 66.54Z" id="a1grzoXCXn"></path><path d="M226.5 68.73C226.51 68.99 226.45 69.24 226.33 69.46C226.22 69.65 226.06 69.8 225.86 69.9C225.66 70 225.43 70.05 225.2 70.04C224.92 70.05 224.65 69.98 224.42 69.82C224.23 69.7 224.09 69.51 224.04 69.29C223.52 69.75 222.85 70.02 222.16 70.04C221.81 70.06 221.46 69.95 221.17 69.75C220.92 69.57 220.78 69.28 220.78 68.97C220.78 68.72 220.85 68.47 220.99 68.26C221.15 68.02 221.36 67.83 221.6 67.68C221.9 67.5 222.22 67.35 222.55 67.24C222.92 67.11 223.38 66.97 223.93 66.83C223.93 66.64 223.93 66.53 223.93 66.51C223.95 66.29 223.88 66.07 223.75 65.89C223.56 65.71 223.31 65.63 223.06 65.66C222.83 65.64 222.61 65.7 222.43 65.84C222.29 65.99 222.2 66.18 222.18 66.38C222.16 66.53 222.1 66.68 222.02 66.81C221.89 66.94 221.7 67 221.52 66.97C221.37 66.97 221.22 66.93 221.1 66.84C220.98 66.74 220.91 66.59 220.92 66.44C220.94 66.06 221.16 65.72 221.49 65.53C222.02 65.24 222.62 65.1 223.22 65.15C223.82 65.08 224.42 65.23 224.92 65.56C225.23 65.84 225.4 66.25 225.38 66.67C225.38 66.85 225.38 68.26 225.38 68.44C225.38 68.77 225.39 68.88 225.39 68.93C225.4 69.02 225.43 69.1 225.49 69.17C225.62 69.29 225.83 69.27 225.95 69.14C225.96 69.13 225.97 69.11 225.98 69.1C226.05 68.99 226.09 68.86 226.09 68.73C226.17 68.73 226.42 68.73 226.5 68.73ZM223.93 67.39C223.44 67.5 222.98 67.73 222.58 68.05C222.41 68.21 222.31 68.44 222.29 68.68C222.29 68.83 222.34 68.98 222.45 69.09C222.57 69.2 222.73 69.26 222.89 69.25C223.08 69.25 223.27 69.21 223.44 69.12C223.61 69.02 223.78 68.91 223.93 68.78C223.93 68.78 223.93 67.53 223.93 67.39Z" id="b6n2wKdJc"></path><path d="M234.22 66.54C234.1 66.66 233.93 66.73 233.76 66.73C233.53 66.72 233.32 66.61 233.2 66.42C233.14 66.34 233.08 66.28 233.01 66.21C232.95 66.17 232.88 66.15 232.8 66.15C232.5 66.16 232.24 66.35 232.13 66.63C231.97 66.93 231.88 67.27 231.88 67.61C231.88 67.71 231.88 68.48 231.88 68.58C231.86 68.8 231.9 69.03 232 69.23C232.08 69.34 232.29 69.4 232.64 69.4L232.93 69.4L232.93 69.91L229.46 69.91L229.46 69.4C229.63 69.4 229.73 69.4 229.75 69.4C230.22 69.4 230.27 69.24 230.33 69.22C230.41 69.02 230.45 68.8 230.43 68.58C230.43 68.42 230.43 67.11 230.43 66.95C230.44 66.77 230.42 66.58 230.36 66.41C230.3 66.3 230.2 66.22 230.08 66.2C229.88 66.15 229.67 66.13 229.46 66.14C229.46 66.11 229.46 65.94 229.46 65.63C230.77 65.34 231.5 65.18 231.64 65.15C231.73 65.55 231.78 65.95 231.8 66.36C231.9 66.14 232.04 65.94 232.21 65.76C232.37 65.58 232.57 65.43 232.78 65.31C232.98 65.21 233.2 65.15 233.43 65.15C233.69 65.13 233.96 65.22 234.15 65.4C234.33 65.56 234.43 65.79 234.42 66.03C234.43 66.22 234.36 66.41 234.22 66.54Z" id="j356dRZHj"></path><path d="M240.6 68.73C240.61 68.99 240.55 69.24 240.43 69.46C240.32 69.65 240.16 69.8 239.96 69.9C239.75 70 239.53 70.05 239.3 70.04C239.02 70.05 238.75 69.98 238.51 69.82C238.32 69.7 238.19 69.51 238.14 69.29C237.62 69.75 236.95 70.02 236.26 70.04C235.9 70.06 235.56 69.95 235.27 69.75C235.02 69.57 234.87 69.28 234.88 68.97C234.88 68.72 234.95 68.47 235.09 68.26C235.25 68.02 235.45 67.83 235.7 67.68C236 67.5 236.32 67.35 236.65 67.24C237.02 67.11 237.48 66.97 238.03 66.83C238.03 66.64 238.03 66.53 238.03 66.51C238.05 66.29 237.98 66.07 237.85 65.89C237.66 65.71 237.41 65.63 237.15 65.66C236.93 65.64 236.71 65.7 236.53 65.84C236.39 65.99 236.3 66.18 236.28 66.38C236.26 66.53 236.2 66.68 236.12 66.81C235.98 66.94 235.8 67 235.61 66.97C235.47 66.97 235.32 66.93 235.2 66.84C235.08 66.74 235.01 66.59 235.02 66.44C235.04 66.06 235.25 65.72 235.59 65.53C236.12 65.24 236.72 65.1 237.32 65.15C237.92 65.08 238.52 65.23 239.01 65.56C239.33 65.84 239.49 66.25 239.48 66.67C239.48 66.85 239.48 68.26 239.48 68.44C239.48 68.77 239.49 68.88 239.49 68.93C239.5 69.02 239.53 69.1 239.59 69.17C239.72 69.29 239.93 69.27 240.05 69.14C240.06 69.13 240.07 69.11 240.08 69.1C240.15 68.99 240.19 68.86 240.19 68.73C240.27 68.73 240.52 68.73 240.6 68.73ZM238.03 67.39C237.54 67.5 237.08 67.73 236.68 68.05C236.51 68.21 236.41 68.44 236.39 68.68C236.39 68.83 236.44 68.98 236.55 69.09C236.67 69.2 236.83 69.26 236.99 69.25C237.18 69.25 237.37 69.21 237.53 69.12C237.71 69.02 237.88 68.91 238.03 68.78C238.03 68.78 238.03 67.53 238.03 67.39Z" id="a5zwqxUDu"></path><path d="M246.56 68.59C246.44 68.9 246.25 69.17 246.01 69.4C245.78 69.62 245.5 69.8 245.2 69.92C244.89 70.04 244.56 70.1 244.23 70.1C243.88 70.11 243.52 70.03 243.2 69.87C242.93 69.72 242.69 69.52 242.49 69.27C242.23 69.53 241.98 69.81 241.75 70.1C241.72 70.1 241.57 70.1 241.31 70.1C241.31 66.38 241.31 64.31 241.31 63.9C241.32 63.74 241.3 63.58 241.24 63.43C241.19 63.33 241.09 63.26 240.99 63.24C240.81 63.21 240.62 63.19 240.44 63.19C240.44 63.15 240.44 62.99 240.44 62.68L242.76 62.19C242.76 64.36 242.76 65.57 242.76 65.81C242.96 65.63 243.18 65.47 243.42 65.34C243.73 65.2 244.07 65.13 244.41 65.15C244.76 65.14 245.1 65.21 245.42 65.35C245.71 65.48 245.96 65.67 246.17 65.91C246.36 66.14 246.51 66.41 246.61 66.7C246.71 66.98 246.76 67.28 246.76 67.59C246.76 67.93 246.69 68.27 246.56 68.59ZM244.98 66.3C244.82 65.94 244.45 65.73 244.06 65.77C243.89 65.77 243.73 65.8 243.58 65.86C243.42 65.93 243.27 66.02 243.13 66.13C242.99 66.25 242.87 66.38 242.76 66.52C242.76 66.75 242.76 68.57 242.76 68.8C242.92 69.05 243.15 69.24 243.43 69.36C243.61 69.43 243.81 69.47 244.02 69.48C244.3 69.49 244.57 69.38 244.75 69.17C244.94 68.95 245.06 68.7 245.12 68.43C245.18 68.13 245.21 67.84 245.21 67.54C245.22 67.12 245.14 66.7 244.98 66.3Z" id="eBmQSmy7R"></path><path d="M253.17 68.59C253.04 68.9 252.85 69.17 252.62 69.4C252.38 69.62 252.11 69.8 251.8 69.92C251.5 70.04 251.17 70.1 250.84 70.1C250.48 70.11 250.13 70.03 249.81 69.87C249.53 69.72 249.29 69.52 249.1 69.27C248.83 69.53 248.58 69.81 248.35 70.1C248.32 70.1 248.18 70.1 247.92 70.1C247.92 66.38 247.92 64.31 247.92 63.9C247.93 63.74 247.9 63.58 247.84 63.43C247.79 63.33 247.7 63.26 247.59 63.24C247.41 63.21 247.23 63.19 247.04 63.19C247.04 63.15 247.04 62.99 247.04 62.68L249.36 62.19C249.36 64.36 249.36 65.57 249.36 65.81C249.56 65.63 249.78 65.47 250.02 65.34C250.33 65.2 250.67 65.13 251.01 65.15C251.36 65.14 251.71 65.21 252.03 65.35C252.31 65.48 252.57 65.67 252.77 65.91C252.96 66.14 253.12 66.41 253.21 66.7C253.31 66.98 253.36 67.28 253.36 67.59C253.36 67.93 253.3 68.27 253.17 68.59ZM251.58 66.3C251.42 65.95 251.05 65.73 250.66 65.77C250.5 65.77 250.33 65.8 250.18 65.86C250.02 65.93 249.87 66.02 249.74 66.13C249.6 66.25 249.47 66.38 249.36 66.52C249.36 66.75 249.36 68.57 249.36 68.8C249.53 69.05 249.76 69.24 250.03 69.36C250.22 69.43 250.42 69.47 250.62 69.48C250.9 69.49 251.17 69.38 251.36 69.17C251.54 68.95 251.66 68.7 251.72 68.43C251.78 68.13 251.81 67.84 251.81 67.54C251.82 67.12 251.74 66.7 251.58 66.3Z" id="bwtdFd0D8"></path><path d="M257.12 69.91L254.08 69.91L254.08 69.4C254.18 69.4 254.24 69.4 254.25 69.4C254.41 69.41 254.57 69.38 254.72 69.31C254.81 69.26 254.88 69.16 254.9 69.06C254.93 68.9 254.94 68.74 254.94 68.58C254.94 68.42 254.94 67.09 254.94 66.92C254.94 66.75 254.93 66.59 254.89 66.43C254.86 66.33 254.78 66.25 254.67 66.21C254.48 66.16 254.28 66.14 254.08 66.14C254.08 66.11 254.08 65.94 254.08 65.63L256.38 65.15C256.38 67.21 256.38 68.35 256.38 68.58C256.36 68.8 256.4 69.03 256.5 69.23C256.57 69.34 256.78 69.4 257.12 69.4L257.12 69.91ZM255.67 63.75C255.23 63.74 254.88 63.37 254.88 62.93C254.89 62.49 255.26 62.13 255.7 62.14C255.91 62.14 256.11 62.23 256.26 62.37C256.41 62.53 256.5 62.74 256.49 62.96C256.48 63.4 256.12 63.75 255.67 63.75Z" id="d21r0aD38E"></path><path d="M261.48 68.92C261.33 69.28 261.08 69.59 260.77 69.82C260.49 70.01 260.16 70.11 259.83 70.1C259.48 70.13 259.14 70.03 258.85 69.83C258.66 69.68 258.52 69.47 258.47 69.23C258.42 68.98 258.39 68.73 258.39 68.48C258.39 68.31 258.39 67.43 258.39 65.85L257.55 65.85C257.55 65.54 257.55 65.37 257.55 65.33C257.87 65.34 258.18 65.27 258.47 65.13C258.72 65 258.93 64.82 259.09 64.59C259.24 64.37 259.34 64.12 259.38 63.85C259.41 63.85 259.56 63.85 259.84 63.85L259.84 65.33L261.42 65.33L261.42 65.85L259.84 65.85C259.84 67.45 259.84 68.34 259.84 68.51C259.83 68.75 259.85 68.99 259.9 69.22C259.94 69.36 260.07 69.45 260.22 69.43C260.39 69.44 260.55 69.36 260.66 69.22C260.79 69.06 260.9 68.89 261 68.7C261.09 68.74 261.38 68.87 261.48 68.92Z" id="f2NZvH2yuL"></path><path d="M264.34 62.02C264.94 61.99 265.55 62.17 266.02 62.55C266.42 62.89 266.64 63.38 266.63 63.9C266.63 64.14 266.59 64.37 266.51 64.59C266.33 64.99 266.04 65.33 265.66 65.56C265.5 65.66 265.39 65.74 265.33 65.78C265.27 65.81 265.15 65.89 264.97 66C264.81 66.09 264.67 66.22 264.58 66.38C264.48 66.66 264.43 66.96 264.43 67.26C264.41 67.26 264.29 67.26 264.09 67.26C264.08 66.97 264.08 66.81 264.08 66.77C264.12 66.33 264.26 65.89 264.5 65.51C264.78 65.02 264.92 64.46 264.92 63.89C264.95 63.52 264.86 63.15 264.68 62.82C264.51 62.56 264.22 62.41 263.91 62.44C263.73 62.42 263.56 62.47 263.42 62.59C263.33 62.67 263.27 62.78 263.27 62.9C263.27 62.94 263.27 62.98 263.29 63.02C263.31 63.06 263.34 63.1 263.37 63.14C263.38 63.15 263.44 63.22 263.45 63.23C263.53 63.32 263.59 63.41 263.63 63.52C263.67 63.62 263.69 63.73 263.69 63.84C263.7 64.03 263.62 64.22 263.47 64.35C263.17 64.62 262.71 64.6 262.42 64.31C262.26 64.14 262.18 63.9 262.19 63.66C262.21 63.23 262.4 62.82 262.72 62.54C263.17 62.16 263.75 61.98 264.34 62.02ZM264.96 68.42C265.34 68.8 265.34 69.41 264.97 69.79C264.59 70.17 263.97 70.17 263.59 69.8C263.41 69.61 263.31 69.37 263.31 69.11C263.3 68.85 263.4 68.6 263.59 68.42C263.97 68.04 264.58 68.04 264.96 68.42Z" id="e2QCgIlcmi"></path><path d="M221.17 47.62C220.49 47.57 219.82 47.58 219.15 47.67C217.67 47.66 216.2 47.45 214.78 47.03C211.69 46.16 207.41 43.41 207.62 39.74C207.61 39.64 207.6 39.54 207.59 39.45C207.56 39.44 207.54 39.44 207.51 39.43C206.78 40.06 206.3 40.94 206.17 41.89C205.92 43.69 206.37 45.51 207.43 46.99C209.27 49.71 212.77 51.45 217.39 52.12C219.52 52.43 221.75 52.59 222.99 51.56C223.76 51 223.92 49.92 223.36 49.15C223.36 49.15 223.36 49.14 223.36 49.14C222.85 48.37 222.07 47.82 221.17 47.62ZM230.64 44.68C228.72 44.73 226.63 42.55 225.29 41.39C224.96 41.11 224.29 40.24 224.86 39.75C224.89 39.72 224.93 39.7 224.97 39.68C225.43 39.92 225.92 40.12 226.43 40.26C227.37 40.54 228.87 40.6 229.25 39.46C229.65 38.25 228.66 36.59 228.14 35.54C227.5 34.24 226.72 33.01 225.8 31.89C225.42 31.42 222.13 27.45 221.67 27.64C220 28.42 218.26 29.06 216.48 29.55C214.46 30.1 212.33 30.13 210.3 29.65C208.59 29.21 207.06 28.28 205.89 26.96C204.88 25.93 204.44 24.46 204.74 23.04C204.8 22.73 204.97 22.45 205.22 22.25C205.57 22.57 205.94 22.87 206.32 23.15C208.91 25.3 212.33 26.19 215.64 25.57C216.49 25.4 217.31 25.01 218.13 24.76C217.49 24.1 216.77 23.52 215.98 23.04C215.18 22.5 214.42 21.91 213.68 21.27C213 20.62 212.6 19.72 212.57 18.77C212.52 18.04 212.84 17.34 213.42 16.9C213.58 16.83 213.77 16.82 213.93 16.87C214.27 16.94 215.11 18.51 215.41 18.84C215.96 19.42 216.56 19.96 217.2 20.44C218.55 21.5 220.02 22.4 221.31 23.54C221.74 23.32 222.14 23.09 222.53 22.85C223.87 22.01 225.72 19.34 227.52 19.99C228.27 20.16 228.78 20.86 228.71 21.63C228.58 22.74 228 23.74 227.09 24.4C226.3 25.09 225.45 25.69 224.53 26.2C227.37 28.58 229.87 31.33 231.96 34.38C233.12 36.12 233.82 38.12 234 40.2C234.11 41.3 233.81 42.4 233.18 43.3C232.58 44.12 231.65 44.62 230.64 44.68Z" id="b5G3OC8ZgZ"></path><path d="M254.65 48.49C253.32 48.41 252 48.12 250.75 47.65C250.37 47.5 249.99 47.32 249.63 47.11C247.14 46.21 244.7 43.88 244.55 41.36C244.45 41.33 244.35 41.33 244.25 41.35C243.12 41.58 243.02 43.63 243.19 44.67C243.86 48.37 246.99 50.71 251.51 52.18C253.16 52.81 254.94 53 256.69 52.74C257.65 52.59 258.34 51.75 258.31 50.77C258.11 49.71 257.3 48.88 256.24 48.65C255.72 48.54 255.19 48.49 254.65 48.49ZM266.23 33.54C265.24 34.09 264.2 34.54 263.14 34.89C263.69 35.92 264.27 36.92 264.91 37.95C265.61 38.89 266.22 39.89 266.72 40.94C267.22 42.21 267.14 43.63 266.49 44.82C266.18 45.31 265.76 45.73 265.27 46.04C262.99 47.46 260.2 44.59 259.08 42.98C259.12 42.79 259.22 42.61 259.36 42.47C260.16 43.11 261.71 43.7 262.49 42.75C263.36 41.7 262.52 40.26 262.02 39.27C261.87 38.97 260.45 35.8 260.37 35.81C257.3 36.44 253.79 37.48 249.89 37C247.6 36.85 245.56 35.51 244.49 33.48C244.14 32.82 243.28 31.1 244.21 30.66C245.15 31.53 246.29 32.16 247.54 32.49C248.26 32.79 249.02 33.02 249.79 33.16C250.08 33.25 250.38 33.32 250.68 33.38C253.73 33.96 256.43 33.17 258.86 32.59C258.32 31.33 257.72 30.09 257.05 28.88C254.63 29.47 252.08 29.26 249.79 28.29C248.34 27.72 247.12 26.69 246.3 25.36C246 24.8 245.62 23.72 246.33 23.4C246.71 23.69 247.14 23.94 247.38 24.09C249.74 25.51 252.51 26.11 255.24 25.79C255.16 25.8 252.77 22.41 252.46 22.05C251.33 20.82 250.3 19.48 249.4 18.06C249.07 17.7 249.11 17.14 249.48 16.82C249.49 16.81 249.51 16.79 249.52 16.78C249.89 16.34 250.41 16.07 250.97 16.02C251.44 16.05 251.88 16.23 252.22 16.55C253.19 17.5 254.06 18.55 254.81 19.69C255.57 20.62 256.22 21.63 256.75 22.7C257.01 23.24 257.54 24.8 258.28 24.85C258.61 24.87 259.26 24.18 259.56 24.02C260.05 23.73 260.59 23.53 261.16 23.45C262.09 23.29 262.97 23.9 263.14 24.83C263.2 25.18 263.15 25.54 263 25.86C262.47 27.02 260.81 27.62 259.68 28.12C260.26 29.36 260.89 30.53 261.49 31.74C263.19 31.33 264.57 30.01 266.2 29.44C266.33 29.37 266.47 29.31 266.62 29.28C267.71 29.16 269.17 30.23 268.66 31.5C268.1 32.44 267.24 33.15 266.23 33.54ZM270.49 18.39C270 18.01 269.46 17.69 268.9 17.45C268.71 17.36 267.13 16.92 267.12 16.85C267.1 16.81 267.09 16.77 267.09 16.73C267.06 15.8 268.61 15.82 269.46 15.78C271.39 15.62 273.33 16.05 275.01 17.03C275.44 17.31 275.79 17.7 276.03 18.14C276.62 19.21 276.23 20.55 275.17 21.14C274.87 21.3 274.53 21.4 274.19 21.41C272.38 21.35 271.7 19.37 270.49 18.39ZM268.23 25.53C267.02 25.02 266.47 23.55 265.67 22.61C264.72 21.64 263.47 21 262.12 20.81C262.11 20.75 262.11 20.67 262.11 20.61C262.22 19.97 263.21 19.93 263.86 19.88C265.98 19.62 268.13 20.11 269.94 21.26C271 21.97 271.44 23.31 270.99 24.51C270.48 25.52 269.28 25.96 268.23 25.53Z" id="d1cODhFkuD"></path><path d="M30.38 19.16C28.79 18.12 26.92 17.61 25.02 17.7C24.71 17.7 24.39 17.71 24.06 17.73C24.05 17.73 23.97 17.74 23.96 17.74C23.3 17.79 22.41 17.86 22.32 18.41C22.32 18.47 22.32 18.53 22.33 18.59C22.35 18.59 22.55 18.6 22.57 18.61C23.9 18.82 25.11 19.46 26.03 20.44C26.31 20.78 26.57 21.14 26.8 21.51C27.22 22.34 27.88 23.02 28.69 23.48C29.74 23.88 30.92 23.44 31.46 22.46C31.91 21.24 31.47 19.87 30.38 19.16Z" id="h2f08dU8ll"></path><path d="M36.63 18.21C37.06 17.5 37.11 16.61 36.75 15.86C36.5 15.4 36.14 15.01 35.71 14.72C33.96 13.71 31.95 13.26 29.94 13.43C29.92 13.43 29.73 13.44 29.71 13.44C28.84 13.47 27.53 13.52 27.55 14.33C27.54 14.33 27.52 14.38 27.48 14.46C27.53 14.44 27.57 14.44 27.57 14.43C27.62 14.44 28.24 14.63 28.65 14.75C29 14.86 29.31 14.95 29.39 14.99C29.99 15.25 30.56 15.59 31.08 16C31.51 16.38 31.91 16.81 32.25 17.28C32.96 18.17 33.69 19.1 34.91 19.14C34.91 19.15 34.93 19.18 34.97 19.23L34.98 19.23L34.98 19.14C35.85 18.91 36.4 18.6 36.63 18.21Z" id="evK1t69q"></path><path d="M110.87 54.92C112.17 53.8 113.55 52.79 115.02 51.89C115.08 51.85 115.33 51.73 115.68 51.58C115.71 51.56 118.56 50.28 119.25 50.12C119.03 49.77 118.1 49.56 117.58 49.44C117.55 49.44 117.31 49.38 117.29 49.38C116.86 49.27 116.43 49.17 116.02 49.07C115.61 48.98 115.22 48.89 114.87 48.8C111.89 48.12 109.03 46.96 106.41 45.37C105.19 44.62 104.09 43.7 103.15 42.63C103.15 42.62 103.13 42.61 103.11 42.58C103.28 42.22 103.38 42.02 103.4 41.98C105.12 38.74 106.54 35.34 107.62 31.83C107.81 31.73 108.01 31.65 108.21 31.6C108.98 31.38 109.93 31.11 109.99 30.45C110.04 29.85 109.36 29.36 108.87 29C107.86 28.27 106.76 27.62 105.71 27C104.95 26.55 104.24 26.13 103.64 25.73C103.62 25.72 103.54 25.66 103.38 25.56C103.57 25.55 103.67 25.55 103.69 25.55C104.75 25.51 105.84 25.49 106.94 25.49C110.38 25.49 113.95 25.67 116.34 25.8C116.38 25.8 116.67 25.82 116.71 25.82C117.11 25.85 117.6 25.88 118.08 25.88C119.2 25.88 119.81 25.7 119.9 25.34C120.08 24.64 119.23 23.97 118.78 23.61C118.77 23.61 118.69 23.55 118.68 23.54C116.9 22.1 115.04 20.78 113.09 19.59C113.04 19.66 112.58 20.33 111.8 21.58C111.72 21.71 111.66 21.79 111.64 21.82C111.55 21.96 111.46 22.11 111.36 22.27C110.84 23.12 110.25 24.08 109.2 24.12C108.9 24.11 108.3 24.1 107.52 24.07C106.18 24.03 104.35 23.97 103.26 23.97C102.97 23.95 102.68 23.96 102.39 24.01C102.38 24 102.36 23.98 102.33 23.93L102.23 23.93C102.23 23.92 102.23 23.92 102.23 23.92C102.24 22.83 102.21 21.8 102.19 20.76C102.18 19.92 102.16 19.07 102.16 18.18C102.32 18 102.52 17.85 102.74 17.73C103.24 17.43 103.81 17.09 103.81 16.56C103.81 15.81 102.46 15.39 101.47 15.08C101.28 15.01 101.09 14.95 100.93 14.9C99.76 14.47 98.56 14.1 97.35 13.79C97.18 13.78 97.02 13.8 96.85 13.83C96.76 13.84 96.67 13.85 96.58 13.86C96.38 15.04 96.35 16.24 96.47 17.43C96.47 17.5 96.73 24.06 96.62 24.17C95 24.29 93.85 24.22 92.45 24.2C91.47 24.18 90.43 24.17 89.22 24.17C87.6 24.17 85.71 24.13 83.58 24.06C83.56 24.06 83.36 24.05 83.33 24.05C83.15 24.04 82.96 24.03 82.79 24.03C82.5 24.03 82.11 24.05 81.98 24.23C82.32 25.06 82.91 25.76 83.65 26.25C83.75 26.22 83.93 26.19 84.11 26.16C84.25 26.13 84.4 26.1 84.54 26.09C84.94 26.04 85.34 26 85.73 25.98C90.19 25.65 94.91 25.63 99.48 25.6C100.67 25.6 101.85 25.59 103.01 25.58C103.02 25.58 103.06 25.58 103.12 25.58C103.12 25.65 103.11 25.69 103.11 25.69C102.5 30.63 101.79 35.36 99.86 38.91C99.86 38.92 99.84 38.96 99.8 39.04C99.74 38.97 99.71 38.93 99.7 38.93C97.58 36.2 95.82 33.22 94.48 30.04C94.47 30.01 94.39 29.82 94.37 29.79C94.25 29.42 94.04 29.07 93.76 28.79C93.28 28.6 92.75 28.61 92.28 28.82C92.21 28.86 92.14 28.9 92.08 28.94C90.93 30.38 89.43 31.51 87.72 32.2C87.74 33.05 88.08 33.86 88.66 34.47C89.01 34.97 89.55 35.3 90.15 35.38C90.29 35.36 90.42 35.32 90.55 35.26C90.92 34.96 91.28 34.64 91.61 34.3C92.01 33.79 92.42 33.32 92.81 32.87C92.86 32.82 92.9 32.76 92.95 32.7C93.08 32.47 93.29 32.29 93.54 32.2C93.55 32.19 93.57 32.19 93.63 32.17C93.88 32.81 94.02 33.16 94.05 33.23C95.17 36.22 96.49 39.13 98 41.94C98.18 42.26 97.19 43.57 95.04 45.83C93.19 47.71 91.1 49.34 88.83 50.67C87.61 51.42 86.6 51.98 85.66 52.44C85.36 52.59 82.59 53.49 82.08 53.66C82.14 53.92 82.52 54.04 82.87 54.06C82.88 54.06 83.02 54.06 83.03 54.06C83.78 54.03 84.52 53.9 85.23 53.68C85.27 53.67 85.54 53.6 85.57 53.6C88 52.94 90.37 52.09 92.66 51.05C94.86 50.17 96.94 49.03 98.86 47.65C99.14 47.43 99.4 47.19 99.66 46.94C99.94 46.67 100.23 46.41 100.54 46.18C100.55 46.17 100.58 46.15 100.63 46.12C100.66 46.17 100.68 46.2 100.68 46.2C101 46.65 101.31 47.1 101.61 47.56C102.48 48.99 103.54 50.29 104.77 51.43C106.07 52.48 107.46 53.43 108.92 54.25C108.94 54.26 109.09 54.36 109.11 54.37C109.53 54.67 110.01 54.87 110.52 54.96C110.52 54.97 110.52 55 110.53 55.06L110.53 55.06C110.68 54.98 110.79 54.94 110.87 54.92Z" id="b264TN5Uek"></path><path d="M23.49 47.02C22.84 47.16 22.19 47.34 21.57 47.58C20.62 47.92 19.66 48.2 18.68 48.41C17.27 48.69 15.84 48.83 14.41 48.83C10.69 48.83 5.99 48 3.95 45.66C3.09 44.68 2.71 43.36 2.93 42.07C2.89 41.32 3.08 40.57 3.48 39.93C2.42 40.21 0.39 42.48 0.39 44.98C0.39 51.66 11.48 53.12 15.75 53.12C22.49 53.12 27.96 51.22 27.96 48.9C27.96 47.71 26.69 46.92 24.79 46.92C24.35 46.93 23.92 46.96 23.49 47.02Z" id="e1h8OUMsMA"></path><path d="M153.44 43.41C153.44 43.37 153.44 43.35 153.44 43.34C153.42 42.8 153.39 42.25 153.36 41.71C153.36 41.6 153.31 40.73 153.31 40.62C153.23 39.44 153.04 36.25 153.04 32.18C153.04 32.08 153.04 31.58 153.04 30.69C153.08 30.67 153.11 30.67 153.11 30.67C157.04 29.48 159.04 27.96 159.04 26.13C159.04 24.53 157.65 24.17 156.3 23.81C156.16 23.77 155.95 23.69 155.71 23.6C155.62 23.55 154.92 23.13 154.83 23.08C154.83 23.11 154.84 23.13 154.84 23.16C154.84 23.17 154.84 23.25 154.84 23.26C154.99 23.49 155.16 23.7 155.37 23.88C155.47 23.98 155.57 24.08 155.66 24.19C156.44 25.3 156.49 26.15 155.8 26.72C155.46 26.99 155.03 27.14 154.59 27.16C154.18 27.19 153.8 26.94 153.66 26.55C153.6 26.28 153.61 26 153.69 25.73C153.73 25.58 153.75 25.43 153.76 25.28C153.76 25.03 153.77 24.73 153.78 24.43C153.86 23.51 153.82 22.59 153.65 21.69C153.19 20.06 151.16 18.46 149.98 18.45C148.93 18.44 147.99 19.1 147.64 20.09C147.65 20.09 147.74 20.16 147.75 20.17C148.33 20.58 148.74 20.88 148.81 20.96C149.14 21.33 149.39 21.78 149.54 22.25C149.84 23.31 149.96 24.41 149.9 25.5C149.9 25.53 149.9 25.79 149.9 25.82C149.95 26.51 149.94 27.2 149.86 27.88C149.66 28.19 148.42 28.15 146.15 27.74C144.89 27.52 143.66 27.17 142.46 26.7C142.37 26.66 142.23 26.59 142.07 26.52C141.59 26.28 140.85 25.95 140.6 26.09C140.53 26.13 140.47 26.21 140.46 26.3C140.47 26.95 140.68 27.58 141.07 28.1C141.47 28.67 141.94 29.18 142.47 29.63C144.16 30.91 146.23 31.57 148.34 31.51C148.82 31.51 149.31 31.48 149.79 31.42C149.8 31.42 149.84 31.41 149.9 31.4C149.91 31.81 149.91 32.03 149.91 32.08C149.95 35.85 149.99 39.43 150.03 41.16C150.03 41.26 150.03 41.75 150.03 42.65C149.96 42.64 149.93 42.64 149.92 42.64C149.22 42.55 148.51 42.5 147.8 42.5C142.92 42.5 139.1 44.76 139.1 47.64C139.1 50.41 142.23 52.93 145.67 52.93C149.2 52.86 152.24 50.42 153.08 46.99C153.09 46.98 153.1 46.94 153.12 46.86C153.19 46.9 153.23 46.93 153.23 46.93C154.55 47.76 155.66 48.87 156.48 50.2C157.25 51.43 158.01 51.68 158.51 51.68C159.66 51.55 160.48 50.52 160.37 49.38C160.37 47.16 156.81 44.56 153.5 43.44C153.5 43.43 153.47 43.43 153.44 43.41ZM147.23 48.73C146.51 49.09 145.73 49.3 144.92 49.34C144.77 49.35 144.61 49.36 144.45 49.36C143.32 49.39 142.21 49.09 141.26 48.49C140.98 48.31 140.88 47.95 141.04 47.66C141.54 46.79 142.36 46.15 143.33 45.87C144.33 45.43 145.42 45.21 146.51 45.24C147.55 45.25 148.57 45.38 149.57 45.62C149.7 45.84 148.79 47.43 148.78 47.44C148.36 47.98 147.83 48.42 147.23 48.73Z" id="frJmiJqSR"></path><path d="M136.08 35.42C136.36 34.82 136.53 34.48 136.63 34.29C136.05 34.56 135.54 34.95 135.13 35.43C135.11 35.45 134.92 35.63 134.9 35.66C134.11 36.48 133.47 37.43 132.99 38.46C132.68 39.05 132.4 39.66 132.09 40.4C132.04 40.51 131.95 40.68 131.85 40.86C131.59 41.25 131.42 41.68 131.33 42.14C131.33 42.14 131.33 42.14 131.33 42.14C131.22 42.16 131.15 42.17 131.14 42.17C131.09 41.8 131.07 41.44 131.07 41.07C131.07 38.16 132.32 34.98 133.43 32.18C133.67 31.55 133.91 30.99 134.13 30.48C134.75 29.3 135.11 28 135.2 26.67C135.23 23.95 133.6 21.49 131.09 20.46C130.79 20.31 130.47 20.2 130.16 20.08C129.65 19.91 129.17 19.7 128.71 19.43C128.67 19.5 128.65 19.58 128.63 19.66C128.52 20.15 129.12 21 129.55 21.62C129.72 21.85 129.88 22.09 130.02 22.34C130.68 23.59 131.06 24.98 131.12 26.4C131.07 27.66 130.88 28.91 130.55 30.13C130.54 30.2 130.4 30.81 130.38 30.89C130.17 31.8 129.93 32.74 129.68 33.7C128.71 36.87 128.17 40.15 128.06 43.47C128.06 47.38 129.14 53.6 132.05 53.6C133.06 53.54 133.84 52.67 133.79 51.66C133.78 51.62 133.78 51.59 133.78 51.56C133.77 51.06 133.66 50.58 133.46 50.12C132.63 48.1 133.14 45.96 133.63 43.9C133.72 43.53 133.8 43.17 133.88 42.81C133.97 42.4 134.05 41.99 134.14 41.57C134.44 39.61 135.02 37.7 135.85 35.89C135.88 35.83 135.97 35.65 136.08 35.42Z" id="dpahl9FGv"></path><path d="M10.03 21.72C9.02 21.71 8.02 21.62 7.03 21.45C6.51 21.37 6 21.24 5.5 21.06C5.32 20.97 5.15 20.87 4.98 20.76C4.76 20.6 4.52 20.47 4.27 20.36C4.26 20.36 4.22 20.37 4.15 20.38C4.15 20.69 4.15 20.86 4.15 20.89C4.15 21.43 6.11 24.66 11.26 25.12C11.58 25.14 11.91 25.15 12.24 25.16C12.25 25.16 12.33 25.17 12.34 25.17C12.67 25.18 13 25.19 13.32 25.21C13.33 25.21 13.39 25.22 13.5 25.22C13.44 25.31 13.4 25.36 13.39 25.37C13.1 25.78 12.59 26.42 12 27.15C11.89 27.32 11.07 28.71 10.96 28.88C10.83 29.27 10.7 29.69 10.61 30.11C10.61 30.11 10.61 30.12 10.62 30.14C10.7 30.14 10.75 30.14 10.76 30.14C12.82 27.43 16.31 26.65 19.39 25.97C19.43 25.96 19.72 25.9 19.75 25.89C20.02 25.83 20.34 25.79 20.68 25.75C22 25.59 23.49 25.41 23.49 23.95C23.49 22.7 21.75 21.3 19.27 21.3C18.89 21.31 18.52 21.34 18.15 21.38C17.76 21.43 17.37 21.45 16.97 21.45C16.15 21.48 15.32 21.53 14.5 21.58C13.03 21.66 11.52 21.75 10.03 21.72Z" id="g4yjlW8DAE"></path><path d="M40.02 52.74C40.26 52.91 40.54 53.09 40.82 53.28C40.85 53.3 41.08 53.46 41.11 53.48C41.59 53.9 42.18 54.17 42.82 54.24C43.26 54.18 43.65 53.46 43.87 52.82C44.35 51.41 44.72 49.87 45.08 48.38C45.23 47.76 45.38 47.15 45.52 46.58C45.85 45.35 46.13 43.94 46.4 42.56C46.56 41.72 46.73 40.87 46.91 40.06C46.91 40.04 46.95 39.9 46.95 39.88C47.04 39.53 47.32 38.47 47.1 38.19C47.07 38.15 47.03 38.13 46.98 38.14C46.55 38.21 46.24 39.02 46.07 39.46C46.07 39.48 46 39.65 45.99 39.67C44.47 43.67 42.24 47.36 39.41 50.57C39.22 50.77 39.02 50.97 38.81 51.15C38.78 51.29 38.77 51.42 38.78 51.56C38.87 52 39.33 52.3 39.74 52.56C39.84 52.62 39.93 52.68 40.02 52.74Z" id="e2F1P3YzGf"></path><path d="M37.31 32.19C37.84 32.08 38.38 32.02 38.92 32.01C39.31 32 39.69 32.06 40.05 32.18C40.68 32.45 41.26 32.82 41.78 33.27C42.47 33.95 43.36 34.4 44.32 34.54C44.78 34.53 45.24 34.37 45.59 34.07C45.93 33.68 46.1 33.17 46.07 32.66C46.11 31.83 45.82 31.03 45.24 30.44C44.46 29.67 43.37 29.32 42.29 29.48C40.87 29.69 39.53 30.25 38.4 31.12C38.38 31.13 38.22 31.24 38.2 31.25C37.89 31.43 37.61 31.67 37.39 31.95C37.36 32.02 37.33 32.11 37.31 32.19Z" id="a1f2RUU4Vk"></path><path d="M49.9 52.51C56.09 52.23 62.77 52.09 70.92 52.09C71.57 52.09 72.26 52.11 72.97 52.13C73.57 52.14 74.19 52.16 74.79 52.17C74.96 52.17 75.18 52.18 75.41 52.19C75.72 52.21 76.07 52.23 76.41 52.23C77.45 52.23 77.99 52.04 78.04 51.66C78.11 51.2 77.62 50.75 77.3 50.46C76.37 49.61 75.8 49.1 74.93 48.34C74.84 48.26 74.74 48.15 74.63 48.04C74.4 47.75 74.1 47.52 73.77 47.36C72.56 47.08 71.88 48.03 71.27 48.95C71.25 48.98 71.09 49.22 71.07 49.25C71.04 49.29 70.99 49.38 70.93 49.48C70.45 50.24 70.14 50.7 69.92 50.77C69.56 50.83 69.2 50.84 68.84 50.8C68.67 50.79 68.51 50.78 68.37 50.78C67.84 50.78 67.33 50.78 66.83 50.79C65.86 50.8 64.93 50.81 63.95 50.78C63.94 50.78 63.91 50.78 63.85 50.77C63.85 50.72 63.85 50.68 63.85 50.68C63.85 48.82 63.84 47.19 63.83 45.57C63.82 43.45 63.81 41.34 63.82 38.74C63.82 38.73 63.82 38.7 63.82 38.65C63.87 38.64 63.9 38.64 63.91 38.64C64.61 38.57 65.43 38.54 66.5 38.54C67.06 38.54 67.64 38.55 68.23 38.56C69.19 38.57 70.17 38.59 71.13 38.57C71.14 38.57 71.24 38.56 71.25 38.56C71.88 38.55 72.94 38.52 73.04 38.12C73.18 37.56 72.33 36.86 72.01 36.6C72 36.59 71.94 36.54 71.93 36.53C71.43 36.09 70.88 35.7 70.29 35.37C70.27 35.36 70.16 35.23 70.15 35.21C69.98 34.95 69.74 34.76 69.45 34.65C68.75 34.52 68.04 34.85 67.69 35.47C67.59 35.63 67.5 35.8 67.42 35.97C67.06 36.7 66.76 37.25 66.43 37.25C66.32 37.25 65.76 37.25 64.75 37.25L63.82 37.25C63.82 37.19 63.82 37.16 63.82 37.15C63.82 36.38 63.81 35.73 63.8 35.08C63.79 34.2 63.78 33.32 63.78 32.14C63.93 31.97 64.1 31.83 64.29 31.72C64.71 31.46 65.11 31.21 65.06 30.66C65.01 30.08 64.04 29.71 63.4 29.46C63.38 29.46 63.27 29.41 63.26 29.41C62.68 29.18 62.09 29 61.49 28.84C61.25 28.77 61.03 28.71 60.81 28.65C60.82 28.63 60.84 28.47 60.84 28.45C62 28.45 63.12 28.4 64.31 28.35C65.56 28.3 66.85 28.24 68.18 28.24C68.23 28.24 68.63 28.24 68.68 28.24C69.28 28.25 69.89 28.26 70.49 28.28C71.23 28.29 71.96 28.31 72.66 28.31C72.9 28.31 73.16 28.33 73.42 28.35C73.77 28.38 74.12 28.4 74.48 28.38C75.08 28.34 75.75 28.16 75.8 27.78C75.84 27.39 75.41 26.98 75.1 26.68C75.09 26.67 74.98 26.56 74.97 26.55C74.39 26 73.79 25.48 73.16 24.99C73.1 24.94 72.67 24.6 72.62 24.55C72.54 24.49 72.45 24.4 72.35 24.31C72.09 24.03 71.77 23.8 71.42 23.65C70.76 23.42 70.04 23.75 69.78 24.4C69.73 24.48 69.34 25.1 69.29 25.18C68.92 25.78 68.58 26.35 68.18 26.89C65.56 26.95 63.35 27.01 62.82 27.02C59.61 27.11 56.11 27.18 53.49 27.06C53.24 27.05 52.98 27.03 52.73 27.01C52.41 26.98 52.09 26.95 51.78 26.95C51.76 26.95 51.62 26.96 51.6 26.96C51.4 26.97 51.19 26.97 50.97 26.97C50.42 26.95 49.88 27.01 49.35 27.13C49.37 27.29 49.38 27.46 49.38 27.62C49.38 27.76 49.39 27.89 49.38 28.01C49.62 28.31 49.93 28.55 50.28 28.7C50.6 28.78 50.93 28.8 51.25 28.75C51.41 28.74 51.58 28.72 51.75 28.72C51.8 28.72 52.16 28.73 52.21 28.73C53.21 28.73 54.26 28.67 55.28 28.62C56.58 28.55 57.92 28.48 59.15 28.52C59.16 28.52 59.19 28.52 59.25 28.52C59.25 28.58 59.25 28.61 59.25 28.62C59.34 31.27 59.35 34.5 59.29 37.25C59.29 37.26 59.29 37.29 59.29 37.35C59.23 37.35 59.2 37.35 59.19 37.35C57.08 37.4 54.9 37.35 52.88 37.31C52.22 37.3 51.58 37.29 50.97 37.28C50.78 37.35 50.64 37.5 50.58 37.7C50.57 38.05 50.71 38.39 50.98 38.63C51.13 38.79 51.67 38.98 53.44 38.98C54.76 38.98 56.34 38.87 57.5 38.8C58.21 38.75 58.77 38.71 59.06 38.71C59.21 38.71 59.36 38.71 59.36 38.84C59.36 39.18 59.36 41.9 59.36 42.24C59.35 45.32 59.35 48.5 59.4 50.78C59.4 50.78 59.4 50.82 59.4 50.88C59.34 50.88 59.3 50.88 59.3 50.88C57.42 50.91 55.42 50.92 53.45 50.92C52.96 50.92 49.02 50.92 48.53 50.92C48.44 50.92 48.34 50.91 48.25 50.91C48.15 50.9 48.06 50.9 47.96 50.9C47.64 50.9 47.46 50.97 47.37 51.14C47.33 51.46 47.43 51.79 47.65 52.04C48.15 52.43 48.79 52.6 49.42 52.52C49.58 52.52 49.74 52.52 49.9 52.51Z" id="c34tCFLWig"></path><path d="M55.38 16.25C55.39 16.26 55.46 16.32 55.46 16.33C55.74 16.63 56.03 16.89 56.33 17.15C56.82 17.55 57.25 18.01 57.62 18.52C58.02 19.23 58.34 20 58.55 20.79C59 22.21 59.46 23.68 60.81 24.1C61.15 24.22 61.52 24.28 61.88 24.28C61.88 24.28 61.88 24.28 61.88 24.28C62.81 24.27 63.69 23.87 64.3 23.17C64.91 22.5 65.26 21.62 65.26 20.71C65.26 18.91 64.25 17.52 62.15 16.49C60.27 15.55 58.19 15.08 56.08 15.12C56.06 15.13 55.91 15.16 55.89 15.16C55.52 15.19 55.02 15.23 54.97 15.52C54.93 15.79 55.22 16.09 55.38 16.25Z" id="aW1NCoAav"></path><path d="M43.85 22.8C44.22 23.41 44.68 24.1 45.43 24.21C46.2 24.33 46.99 24.06 47.53 23.49C48.02 22.95 48.27 22.24 48.21 21.51C48.14 20.73 47.75 20.01 47.15 19.52C46.06 18.84 44.79 18.51 43.5 18.57C43.38 18.57 43.26 18.57 43.14 18.58C41.53 18.63 40.43 18.9 40.41 19.24C42.11 19.71 43.43 21.07 43.85 22.8Z" id="iwyiNHLW0"></path><path d="M301.87 31.68C302.53 31.95 303.16 32.27 303.77 32.64C304.19 32.98 304.56 33.38 304.88 33.81C305.51 34.32 306.01 34.98 306.32 35.73C306.51 35.92 306.69 36.12 306.86 36.32C307.31 36.9 308 37.26 308.74 37.3C310.01 37.23 310.98 36.15 310.92 34.88C310.92 32.87 308.71 30.84 304.5 30.84C302.4 30.84 301.96 31.33 301.87 31.68ZM308.84 22.91C308.02 22.77 307.19 22.71 306.36 22.71C304.09 22.67 301.85 23.1 299.77 23.98C296.77 25.58 294.14 32.52 294.14 38.83C294.14 47.39 299.03 48.31 301.14 48.31C302.03 48.3 302.91 48.15 303.75 47.87C304.22 47.72 304.7 47.64 305.19 47.64C306.78 47.64 307.98 48.59 307.98 49.85C307.98 52.49 303.35 53.06 301.57 53.06C299.79 53.06 290.91 52.45 290.91 40.36C290.93 37.76 291.26 35.18 291.9 32.67C292.18 31.51 292.54 30.38 292.97 29.27C293.02 29.14 293.08 28.96 293.16 28.74C293.43 27.96 293.92 26.52 294.35 26.31C294.34 26.29 294.3 26.19 294.21 26.02C294.21 26.02 294.21 26.02 294.21 26.02C293.84 26.19 293.45 26.34 293.05 26.46C292.7 26.58 292.34 26.7 292 26.86C291.05 27.29 290.1 27.75 289.16 28.21C289.12 28.23 288.85 28.36 288.82 28.38C286.71 29.42 284.89 30.31 282.52 30.31C282.5 30.31 282.33 30.31 282.3 30.31C281.05 30.28 278.12 29.93 278.12 27.24C278.1 26.93 278.23 26.62 278.47 26.41C279.24 27 280.19 27.3 281.16 27.26C281.16 27.26 281.17 27.26 281.17 27.26C283.65 27.26 286.67 25.77 288.87 24.67C289.44 24.39 289.95 24.14 290.4 23.93C290.57 23.86 291.93 23.24 292.1 23.16C295.59 21.45 299.21 20.04 302.93 18.95C303.22 18.87 303.51 18.78 303.79 18.67C304.81 18.33 305.86 18.12 306.92 18.03C307.35 17.99 307.79 17.97 308.23 17.97C309.99 17.97 312.93 18.35 312.93 20.9C312.93 21.93 311.96 22.97 309.78 22.97C309.46 22.97 309.15 22.95 308.84 22.91ZM314.75 33.74C314.73 33.74 314.72 33.74 314.71 33.74C312.77 33.74 312.07 31.54 311.09 30.28C310.18 29.12 308.93 28.99 307.71 28.44C307.93 27.65 309.34 27.47 310.56 27.47C313.69 27.47 316.84 28.69 316.84 31.41C316.9 32.63 315.97 33.67 314.75 33.74Z" id="d67xvMSVm3"></path><path d="M353.18 22.99C353 22.98 352.82 22.98 352.63 22.99C351.16 23.07 349.68 22.88 348.27 22.43C347.59 22.22 346.93 21.92 346.32 21.55C346.07 21.37 345.84 21.17 345.63 20.96C345.43 20.77 345.23 20.59 345.01 20.43C345.01 20.43 345 20.43 345 20.43C345.16 21.35 346.71 23.52 347.59 23.52C347.59 23.52 347.59 23.52 347.59 23.52L347.61 23.52C347.62 23.71 347.62 23.82 347.63 23.84C346.42 23.89 345.22 23.96 343.96 24.05C343.94 24.05 343.88 24.06 343.76 24.07C343.78 23.95 343.79 23.89 343.79 23.87C343.92 22.78 344.09 21.7 344.3 20.59C344.39 20.09 344.44 19.6 344.46 19.1C344.63 17.07 343.13 15.28 341.1 15.11C340.93 15.09 340.77 15.09 340.6 15.1C339.79 15.03 339 15.35 338.48 15.96C338.95 16.47 339.38 17.01 339.77 17.57C340.09 18.35 340.28 19.17 340.33 20.01C340.33 20.05 340.62 24.33 340.21 24.38C337.6 24.66 335.12 25 332.13 25.41C332.01 25.42 331.05 25.55 330.93 25.57C329.81 25.72 328.67 25.88 327.52 26.03C326.8 26.11 326.09 26.16 325.37 26.16C324.93 26.16 324.5 26.13 324.06 26.08C324.05 26.08 323.96 26.07 323.95 26.07C323.84 26.08 323.73 26.07 323.62 26.04C322.79 25.83 321.97 25.56 321.18 25.22C320.78 25.42 320.55 25.85 320.61 26.3C320.61 28.73 323.57 30.43 326.23 30.43C327.37 30.42 328.49 30.19 329.54 29.75C332.96 28.39 336.54 27.49 340.2 27.07C340.21 27.07 340.27 27.07 340.37 27.05C340.38 27.16 340.38 27.22 340.38 27.23C340.41 29.15 340.44 30.92 340.45 32.38C340.45 32.39 340.45 32.46 340.45 32.59C340.33 32.55 340.26 32.54 340.25 32.53C339.74 32.39 339.21 32.32 338.69 32.32C336.2 32.2 334.09 34.12 333.96 36.6C333.95 36.81 333.96 37.02 333.98 37.22C334.02 39.29 334.7 41.28 335.93 42.94C336.52 43.85 337.53 44.4 338.61 44.39C338.86 44.4 339.1 44.38 339.35 44.33C339.41 44.32 339.46 44.3 339.52 44.29C339.64 44.25 339.76 44.23 339.89 44.22C339.9 44.22 339.96 44.22 340.07 44.22C340.06 44.32 340.06 44.38 340.05 44.39C339.9 46.53 338.35 48.48 336.91 50.14C336.21 50.88 335.45 51.56 334.63 52.16C334.57 52.2 334.14 52.53 334.09 52.58C333.57 52.97 333.03 53.31 332.46 53.61C332.19 53.74 331.93 53.9 331.7 54.1C331.71 54.1 331.75 54.12 331.84 54.16C331.94 54.19 332.06 54.21 332.17 54.2C333.3 54.06 334.41 53.77 335.47 53.33C336.73 52.84 337.91 52.17 338.97 51.35C341.16 49.68 342.89 47.48 344.01 44.97C344.79 43.26 345.2 41.41 345.23 39.53C345.35 37.74 344.76 35.98 343.58 34.62C343.58 34.61 343.56 34.58 343.54 34.52C343.53 34.27 343.52 34.12 343.52 34.1C343.47 33.06 343.41 31.78 343.41 30.29C343.41 29.23 343.45 28.12 343.51 26.97C343.51 26.96 343.51 26.91 343.52 26.83C343.61 26.82 343.66 26.82 343.67 26.82C344.2 26.81 344.72 26.81 345.22 26.81C348.64 26.78 352.05 27.24 355.34 28.18C356.27 28.53 357.31 28.42 358.15 27.89C358.55 27.59 358.79 27.12 358.78 26.62C358.78 24.48 355.47 23.11 353.18 22.99ZM336.53 36.5C336.53 35.34 337.1 34.65 338.06 34.65C339.14 34.68 340.1 35.32 340.55 36.3C340.64 36.72 340.68 37.15 340.68 37.58C340.68 39.83 339.85 40.3 339.15 40.3C336.76 40.3 336.53 36.54 336.53 36.5Z" id="aWyAhctUD"></path><path d="M377.47 27.44C377.45 27.45 377.35 27.47 377.18 27.51C377.24 27.35 377.27 27.26 377.28 27.24C377.9 25.52 378.3 23.73 378.46 21.91C378.46 19.23 376.85 18.27 375.34 18.27C374.11 18.36 372.95 18.88 372.06 19.74C372.99 20.35 373.67 21.27 373.96 22.34C374.21 22.86 374.32 23.44 374.28 24.01C374.21 25.59 373.95 27.16 373.52 28.68C373.51 28.69 373.51 28.72 373.49 28.77C373.44 28.78 373.42 28.79 373.41 28.79C372.97 28.94 372.49 29.13 371.99 29.33C370.51 30.01 368.93 30.42 367.31 30.55C366.86 30.56 366.42 30.49 365.99 30.36C364.96 29.79 364.03 29.07 363.22 28.21C362.82 28.81 362.65 29.54 362.73 30.26C362.74 32.55 364.61 34.4 366.91 34.39C366.97 34.39 367.03 34.38 367.09 34.38C368.57 34.19 370.01 33.77 371.37 33.14C371.39 33.13 371.53 33.08 371.76 32.98C371.65 33.21 371.59 33.34 371.57 33.36C369.08 38.12 366.23 42.68 363.05 47.01C362.17 48.02 361.61 49.26 361.45 50.58C361.36 51.46 362 52.23 362.87 52.31C362.96 52.32 363.04 52.32 363.13 52.32C364.23 52.32 365.83 51.4 366.93 49.36C367.57 48.18 368.27 46.84 369.01 45.4C369.03 45.37 369.1 45.24 369.22 45C369.28 45.27 369.31 45.41 369.31 45.44C369.38 45.74 369.49 46.12 369.63 46.63C369.77 47.12 369.84 47.64 369.85 48.15C369.91 49.32 369.98 50.65 371.78 51.23C372.42 51.45 373.09 51.56 373.77 51.55C378.98 51.55 384.52 46.05 384.52 35.84C384.52 30.13 382.66 27.24 379.02 27.24C378.49 27.24 377.97 27.31 377.47 27.44ZM373.21 46.78C372.98 46.72 372.76 46.63 372.55 46.51C371.51 46.24 370.6 45.59 370.01 44.69C369.91 44.47 369.89 44.22 369.96 43.98C369.94 43.98 369.87 43.97 369.74 43.96C369.81 43.84 369.85 43.77 369.85 43.75C371.21 41.08 373.76 35.93 375.65 31.48C377.6 30.1 378.56 30.04 378.73 30.04C380.12 30.04 380.86 31.71 380.86 34.89C380.86 40.69 378.17 47.18 374.58 47.18C374.1 47.16 373.63 47.02 373.21 46.78ZM393.1 41.31C392.62 41.33 392.1 41.34 391.51 41.34C390.36 41.34 389.4 41.28 389.4 40.47C389.4 40.37 389.43 40.28 389.47 40.2C389.6 40.17 389.89 40.12 390.22 40.07C390.94 39.94 391.47 39.85 391.63 39.8C392.29 39.59 392.93 39.33 393.56 39.02C395.23 38.17 396.08 37.13 396.08 35.93C396.08 33.03 393.53 30.79 388.29 29.1C388.38 28.75 388.78 28.57 389.46 28.57C395.94 28.57 400.64 31.99 400.64 36.7C400.72 38.42 399.96 40.08 398.6 41.14C398.05 41.53 397.38 41.74 396.71 41.72C396.15 41.7 395.6 41.64 395.06 41.53C394.45 41.4 393.83 41.33 393.21 41.31C393.19 41.31 393.11 41.31 393.1 41.31Z" id="a1FVztietU"></path><path d="M178.19 8.32C177.82 6.88 177.73 0.72 179.53 0C179.53 0 181.06 -0.22 180.58 5.66C180.58 5.66 180.2 7.08 179.81 8.24C179.93 8.27 180.95 8.52 181.08 8.56C184.51 0.93 187.74 1.83 187.74 1.83C190.03 3.35 183.01 9.96 183.01 9.96C183.81 11.69 183 14.56 183 14.56C184.93 14.37 186.85 14.96 188.33 16.21C190.38 14.82 191.12 16.62 191.12 16.62C191.63 18.22 189.75 18.86 189.75 18.86C191.42 21.15 190.77 22.12 190.4 22.52C189.92 22.92 187.93 21.49 187.93 21.49C186.74 21.26 185.79 20.56 184.45 20.49C181.76 20.37 179.08 20.91 176.66 22.09C175.29 22.76 174.3 23.05 173.76 22.63C173.11 20.4 177.27 16.96 177.27 16.96C177.83 16.44 176.86 16.29 176.86 16.29C174.9 16.22 173.38 14.58 173.45 12.63C173.45 12.55 173.46 12.47 173.47 12.39C173.88 9.74 176.87 8.36 178.19 8.32ZM194.59 39.25C189.29 49.34 174.02 53.92 171.77 54.05C171.17 54.08 171.02 53.77 171.01 53.51C170.99 53.2 170.98 52.9 173.34 51.88C180.85 48.69 191.32 41.6 191.32 32.97C191.32 28.57 186.95 26.72 184.72 26.84C182.6 27.05 180.55 27.76 178.76 28.91C177.47 29.88 175.93 30.47 174.32 30.62C170.96 30.81 168.51 28.98 168.41 27.22C168.34 26.24 168.98 25.35 169.93 25.09C170.42 25.09 170.85 25.39 171.03 25.84C171.39 26.32 172.32 26.38 173.04 26.34C174.45 26.2 175.85 25.9 177.19 25.43C177.2 25.42 177.29 25.4 177.3 25.39C179.82 24.6 182.43 24.08 185.07 23.85C191.49 23.49 195.91 28.09 196.18 32.75C196.26 35.03 195.71 37.28 194.59 39.25Z" id="aOSLIf9MU"></path><path d="M139.22 64.03C139.1 63.82 139.12 63.56 139.27 63.37C139.31 63.32 139.33 63.26 139.33 63.19C139.33 63.02 139.19 62.88 139.01 62.88C138.91 62.88 138.81 62.93 138.76 63.02C137.95 64.19 135.58 65.39 132.47 65.94C132.13 65.2 131.26 64.88 130.52 65.22C130.36 65.3 130.21 65.4 130.08 65.53C129.74 65.02 129.16 64.71 128.54 64.72C127.51 64.72 127.28 65.55 127.28 66.57C127.28 67.6 127.51 68.43 128.54 68.43C129.16 68.43 129.74 68.12 130.08 67.61C130.65 68.19 131.58 68.21 132.16 67.64C132.29 67.52 132.4 67.37 132.47 67.2C135.58 67.75 137.95 68.95 138.75 70.13C138.81 70.21 138.91 70.26 139.01 70.26C139.08 70.26 139.14 70.24 139.19 70.21C139.33 70.11 139.37 69.91 139.27 69.77C139.12 69.58 139.1 69.32 139.22 69.11C139.84 67.93 143.64 66.89 147.35 66.89C147.52 66.89 147.66 66.75 147.67 66.58C147.67 66.4 147.53 66.26 147.36 66.26C147.35 66.26 147.35 66.26 147.35 66.26C143.64 66.26 139.84 65.22 139.22 64.03Z" id="b4YH49KazT"></path><path d="M37.15 66.51C37.06 65.88 36.47 65.44 35.84 65.53C35.81 65.53 35.77 65.54 35.74 65.55C34.9 65.92 35.82 65.12 35.58 64.39C35.42 63.92 34.67 63.44 34.69 64.08C34.73 65.45 32.17 65.86 30.23 65.97C30.04 65.98 29.81 65.99 29.57 66C27.82 65.38 26.49 63.92 26.03 62.11C26.11 62.15 26.19 62.18 26.27 62.2C26.82 62.32 27.35 61.97 27.47 61.43C27.58 60.89 27.25 60.36 26.71 60.23C26.46 60.18 26.19 60.22 25.97 60.36C26.01 60.28 26.05 60.19 26.07 60.09C26.2 59.55 25.86 59.01 25.32 58.88C24.77 58.76 24.23 59.1 24.11 59.64C23.99 60.13 24.26 60.63 24.73 60.81C24.18 60.76 23.69 61.17 23.64 61.72C23.59 62.28 24 62.76 24.56 62.81C24.97 62.85 25.36 62.63 25.54 62.27C25.65 62.69 25.8 63.09 26 63.48C26.38 64.21 24.8 66.08 23.45 65.98C22.24 65.93 21.1 65.41 20.26 64.53C19.9 64.05 19.97 63.37 20.43 62.98C20.86 62.69 21.43 62.67 21.88 62.94C22.18 63.08 22.43 62.68 22.3 62.23C21.88 61.26 20.93 60.63 19.88 60.62C18.53 60.61 17.43 61.71 17.43 63.06C17.43 63.19 17.44 63.32 17.46 63.44C17.74 64.27 18.32 64.97 19.07 65.42C18.5 65.32 17.94 65.18 17.39 65C15.87 64.42 11.95 65.84 11.95 66.51C11.95 66.53 11.96 66.54 11.96 66.55C11.96 66.57 11.95 66.58 11.95 66.59C11.95 67.27 15.87 68.68 17.39 68.11C17.94 67.92 18.5 67.78 19.07 67.69C18.32 68.13 17.75 68.83 17.46 69.67C17.25 71 18.17 72.25 19.5 72.46C19.63 72.48 19.76 72.49 19.88 72.49C20.93 72.48 21.88 71.85 22.3 70.88C22.43 70.43 22.19 70.03 21.88 70.17C21.43 70.44 20.86 70.42 20.43 70.13C19.97 69.73 19.9 69.06 20.26 68.58C21.1 67.7 22.24 67.18 23.45 67.13C24.8 67.03 26.38 68.9 26 69.63C25.8 70.01 25.65 70.42 25.54 70.84C25.29 70.34 24.68 70.15 24.19 70.4C23.69 70.65 23.5 71.25 23.75 71.75C23.93 72.12 24.32 72.33 24.73 72.3C24.21 72.49 23.95 73.08 24.15 73.6C24.35 74.12 24.93 74.38 25.45 74.18C25.92 74 26.18 73.51 26.07 73.02C26.05 72.92 26.01 72.83 25.96 72.75C26.44 73.04 27.06 72.9 27.35 72.42C27.49 72.2 27.54 71.93 27.48 71.67C27.36 71.13 26.82 70.78 26.28 70.91C26.28 70.91 26.28 70.91 26.27 70.91C26.19 70.93 26.11 70.96 26.03 71C26.49 69.19 27.82 67.73 29.57 67.1C29.81 67.11 30.04 67.12 30.23 67.13C32.17 67.25 34.73 67.66 34.69 69.03C34.67 69.67 35.42 69.18 35.58 68.71C35.82 67.99 34.9 67.19 35.74 67.56C36.36 67.7 36.98 67.32 37.13 66.69C37.14 66.66 37.14 66.63 37.15 66.59C37.15 66.58 37.14 66.57 37.14 66.55C37.14 66.54 37.15 66.53 37.15 66.51Z" id="b17HvzNi4q"></path><path d="M125.95 66.59C125.95 66.14 126.32 65.77 126.77 65.77C127.22 65.77 127.59 66.14 127.59 66.59C127.59 67.05 127.22 67.41 126.77 67.42C126.32 67.42 125.95 67.05 125.95 66.59ZM123.44 66.58C123.45 66.14 123.81 65.78 124.25 65.77C124.7 65.77 125.07 66.14 125.07 66.59C125.07 67.05 124.7 67.42 124.25 67.42C123.8 67.41 123.43 67.03 123.44 66.58ZM120.92 66.59C120.92 66.14 121.28 65.77 121.74 65.77C122.19 65.77 122.56 66.14 122.56 66.59C122.56 67.05 122.19 67.41 121.74 67.42C121.28 67.42 120.92 67.05 120.92 66.59ZM118.39 66.59C118.39 66.14 118.76 65.77 119.21 65.77C119.67 65.77 120.04 66.14 120.04 66.59C120.03 67.05 119.67 67.41 119.21 67.42C118.76 67.42 118.39 67.05 118.39 66.59ZM115.87 66.59C115.87 66.14 116.24 65.77 116.69 65.77C117.15 65.77 117.51 66.14 117.51 66.59C117.51 67.05 117.14 67.41 116.69 67.42C116.24 67.42 115.87 67.05 115.87 66.59ZM113.36 66.58C113.37 66.14 113.73 65.78 114.17 65.77C114.62 65.77 114.99 66.14 114.99 66.59C114.99 67.05 114.62 67.42 114.17 67.42C113.72 67.41 113.35 67.03 113.36 66.58ZM110.84 66.59C110.84 66.14 111.2 65.77 111.66 65.77C112.11 65.77 112.48 66.14 112.48 66.59C112.48 67.05 112.11 67.41 111.66 67.42C111.2 67.42 110.84 67.05 110.84 66.59ZM108.31 66.59C108.31 66.14 108.68 65.77 109.13 65.77C109.59 65.77 109.96 66.14 109.96 66.59C109.95 67.05 109.59 67.41 109.13 67.42C108.68 67.42 108.31 67.05 108.31 66.59ZM105.79 66.59C105.79 66.14 106.16 65.77 106.61 65.77C107.06 65.77 107.43 66.14 107.43 66.59C107.43 67.05 107.06 67.41 106.61 67.42C106.16 67.42 105.79 67.05 105.79 66.59ZM103.27 66.59C103.27 66.14 103.64 65.77 104.09 65.77C104.54 65.77 104.91 66.14 104.91 66.59C104.91 67.05 104.54 67.41 104.09 67.42C103.64 67.42 103.27 67.05 103.27 66.59ZM100.76 66.59C100.76 66.14 101.12 65.77 101.58 65.77C102.03 65.78 102.39 66.15 102.39 66.61C102.38 67.05 102.02 67.41 101.58 67.42C101.12 67.42 100.76 67.05 100.76 66.59ZM98.23 66.59C98.23 66.14 98.6 65.77 99.05 65.77C99.51 65.77 99.88 66.14 99.88 66.59C99.87 67.05 99.51 67.41 99.05 67.42C98.6 67.42 98.23 67.05 98.23 66.59ZM95.71 66.59C95.71 66.14 96.08 65.77 96.53 65.77C96.99 65.77 97.35 66.14 97.35 66.59C97.35 67.05 96.98 67.41 96.53 67.42C96.08 67.42 95.71 67.05 95.71 66.59ZM93.19 66.59C93.19 66.14 93.56 65.77 94.01 65.77C94.46 65.77 94.83 66.14 94.83 66.59C94.83 67.04 94.47 67.41 94.02 67.42C94.02 67.42 94.01 67.42 94.01 67.42C93.56 67.42 93.19 67.05 93.19 66.59ZM90.68 66.59C90.68 66.14 91.04 65.77 91.5 65.77C91.95 65.78 92.31 66.15 92.31 66.61C92.3 67.05 91.94 67.41 91.5 67.42C91.04 67.42 90.68 67.05 90.68 66.59ZM88.15 66.59C88.15 66.14 88.52 65.77 88.98 65.77C89.43 65.77 89.8 66.14 89.8 66.59C89.79 67.05 89.43 67.41 88.97 67.42C88.52 67.42 88.15 67.05 88.15 66.59ZM85.63 66.59C85.63 66.14 86 65.77 86.45 65.77C86.91 65.77 87.27 66.14 87.27 66.59C87.27 67.05 86.9 67.41 86.45 67.42C86 67.42 85.63 67.05 85.63 66.59ZM83.11 66.59C83.11 66.14 83.48 65.77 83.93 65.77C84.38 65.77 84.75 66.14 84.75 66.59C84.75 67.05 84.39 67.41 83.94 67.42C83.94 67.42 83.93 67.42 83.93 67.42C83.48 67.42 83.11 67.05 83.11 66.59ZM80.6 66.59C80.6 66.14 80.96 65.77 81.42 65.77C81.87 65.77 82.24 66.14 82.24 66.59C82.24 67.05 81.87 67.41 81.42 67.42C80.96 67.42 80.6 67.05 80.6 66.59ZM78.07 66.59C78.07 66.14 78.44 65.77 78.89 65.77C79.35 65.77 79.72 66.14 79.72 66.59C79.71 67.05 79.35 67.41 78.9 67.42C78.44 67.42 78.07 67.05 78.07 66.59ZM75.55 66.59C75.55 66.14 75.92 65.77 76.37 65.77C76.83 65.77 77.19 66.14 77.19 66.59C77.19 67.05 76.83 67.41 76.37 67.42C75.92 67.42 75.55 67.05 75.55 66.59ZM73.03 66.59C73.03 66.14 73.4 65.77 73.85 65.77C74.3 65.77 74.67 66.14 74.67 66.59C74.67 67.04 74.31 67.41 73.86 67.42C73.86 67.42 73.85 67.42 73.85 67.42C73.4 67.42 73.03 67.05 73.03 66.59ZM70.52 66.59C70.52 66.14 70.88 65.77 71.34 65.77C71.79 65.77 72.16 66.14 72.16 66.59C72.16 67.05 71.79 67.41 71.34 67.42C70.88 67.42 70.52 67.05 70.52 66.59ZM67.99 66.59C67.99 66.14 68.36 65.77 68.81 65.77C69.27 65.77 69.64 66.14 69.64 66.59C69.63 67.05 69.27 67.41 68.82 67.42C68.36 67.42 67.99 67.05 67.99 66.59ZM65.47 66.59C65.47 66.14 65.84 65.77 66.29 65.77C66.75 65.77 67.11 66.14 67.11 66.59C67.11 67.05 66.75 67.41 66.29 67.42C65.84 67.42 65.47 67.05 65.47 66.59ZM62.95 66.59C62.95 66.14 63.32 65.77 63.77 65.77C64.22 65.77 64.59 66.14 64.59 66.59C64.59 67.04 64.23 67.41 63.78 67.42C63.78 67.42 63.77 67.42 63.77 67.42C63.32 67.42 62.95 67.05 62.95 66.59ZM60.44 66.59C60.44 66.14 60.8 65.77 61.26 65.77C61.71 65.77 62.08 66.14 62.08 66.59C62.08 67.05 61.71 67.41 61.26 67.42C60.8 67.42 60.44 67.05 60.44 66.59ZM57.91 66.59C57.91 66.14 58.28 65.77 58.74 65.77C59.19 65.77 59.56 66.14 59.56 66.59C59.55 67.05 59.19 67.41 58.74 67.42C58.28 67.42 57.91 67.05 57.91 66.59ZM55.4 66.58C55.41 66.14 55.77 65.78 56.21 65.77C56.67 65.77 57.03 66.14 57.03 66.59C57.03 67.05 56.67 67.42 56.21 67.42C55.76 67.41 55.4 67.03 55.4 66.58ZM52.87 66.6C52.86 66.15 53.23 65.78 53.68 65.77C54.13 65.77 54.51 66.13 54.51 66.58C54.51 66.59 54.51 66.59 54.51 66.59C54.51 67.04 54.15 67.41 53.7 67.42C53.25 67.42 52.88 67.06 52.87 66.6ZM50.36 66.59C50.36 66.14 50.72 65.77 51.18 65.77C51.63 65.77 52 66.14 52 66.59C52 67.05 51.63 67.41 51.18 67.42C50.72 67.42 50.36 67.05 50.36 66.59ZM47.83 66.59C47.83 66.14 48.2 65.77 48.65 65.77C49.11 65.77 49.48 66.14 49.48 66.59C49.47 67.05 49.11 67.41 48.66 67.42C48.2 67.42 47.83 67.05 47.83 66.59ZM45.32 66.58C45.33 66.14 45.69 65.78 46.13 65.77C46.59 65.77 46.95 66.14 46.95 66.59C46.95 67.05 46.59 67.42 46.13 67.42C45.68 67.41 45.32 67.03 45.32 66.58ZM42.79 66.6C42.78 66.15 43.15 65.78 43.6 65.77C44.05 65.77 44.43 66.13 44.43 66.58C44.43 66.59 44.43 66.59 44.43 66.59C44.43 67.04 44.07 67.41 43.62 67.42C43.17 67.42 42.79 67.06 42.79 66.6ZM40.28 66.59C40.28 66.14 40.64 65.77 41.1 65.77C41.55 65.77 41.92 66.14 41.92 66.59C41.92 67.05 41.55 67.41 41.1 67.42C40.64 67.42 40.28 67.05 40.28 66.59ZM37.75 66.59C37.75 66.14 38.12 65.77 38.58 65.77C39.03 65.77 39.4 66.14 39.4 66.59C39.39 67.05 39.03 67.41 38.58 67.42C38.12 67.42 37.75 67.05 37.75 66.59Z" id="c3sKuKGg0g"></path><path d="M282.1 64.03C282.22 63.82 282.19 63.56 282.04 63.37C282.01 63.32 281.99 63.26 281.99 63.19C281.99 63.09 282.04 62.99 282.12 62.93C282.27 62.84 282.46 62.87 282.56 63.01C282.56 63.01 282.56 63.02 282.56 63.02C283.36 64.19 285.74 65.39 288.84 65.94C289.18 65.2 290.06 64.88 290.8 65.22C290.96 65.3 291.11 65.4 291.24 65.53C291.58 65.02 292.16 64.71 292.78 64.71C293.8 64.71 294.04 65.55 294.04 66.57C294.04 67.6 293.8 68.43 292.78 68.43C292.16 68.43 291.58 68.12 291.24 67.61C290.67 68.19 289.74 68.21 289.16 67.64C289.03 67.52 288.92 67.37 288.84 67.2C285.74 67.75 283.36 68.95 282.56 70.13C282.51 70.21 282.41 70.26 282.3 70.26C282.24 70.26 282.18 70.24 282.13 70.21C282.04 70.15 281.99 70.05 281.99 69.95C281.99 69.88 282.01 69.82 282.04 69.77C282.2 69.58 282.22 69.32 282.1 69.11C281.47 67.93 277.67 66.89 273.97 66.89C273.8 66.89 273.65 66.75 273.65 66.58C273.65 66.4 273.79 66.26 273.96 66.26C273.96 66.26 273.97 66.26 273.97 66.26C277.67 66.26 281.47 65.22 282.1 64.03Z" id="b2rTIpHY85"></path><path d="M384.17 66.51C384.26 65.88 384.84 65.44 385.48 65.53C385.51 65.53 385.54 65.54 385.58 65.55C386.42 65.92 385.49 65.12 385.74 64.39C385.89 63.92 386.65 63.44 386.63 64.08C386.59 65.45 389.15 65.86 391.08 65.97C391.27 65.98 391.5 65.99 391.74 66C393.5 65.38 394.83 63.92 395.29 62.11C395.21 62.15 395.13 62.18 395.04 62.2C394.5 62.32 393.96 61.98 393.84 61.44C393.72 60.89 394.06 60.35 394.6 60.23C394.86 60.18 395.13 60.22 395.35 60.36C395.3 60.28 395.27 60.19 395.24 60.09C395.12 59.55 395.46 59.01 396 58.88C396.54 58.76 397.09 59.1 397.21 59.64C397.32 60.13 397.06 60.63 396.58 60.81C397.14 60.76 397.62 61.17 397.67 61.72C397.72 62.28 397.31 62.77 396.76 62.81C396.35 62.85 395.96 62.63 395.77 62.27C395.67 62.69 395.52 63.09 395.32 63.48C394.94 64.21 396.52 66.08 397.87 65.98C399.08 65.93 400.22 65.41 401.06 64.53C401.42 64.05 401.35 63.37 400.89 62.98C400.46 62.69 399.89 62.67 399.44 62.94C399.13 63.08 398.89 62.68 399.02 62.23C399.44 61.26 400.38 60.63 401.44 60.62C402.79 60.61 403.88 61.71 403.89 63.06C403.89 63.19 403.88 63.31 403.86 63.44C403.57 64.27 403 64.97 402.24 65.42C402.81 65.32 403.38 65.18 403.92 65C405.45 64.42 409.37 65.84 409.37 66.51C409.37 66.53 409.36 66.54 409.36 66.55C409.36 66.57 409.37 66.58 409.37 66.59C409.37 67.27 405.45 68.68 403.92 68.11C403.38 67.92 402.81 67.78 402.24 67.69C403 68.13 403.57 68.83 403.86 69.67C404.07 71 403.15 72.25 401.81 72.46C401.69 72.48 401.56 72.49 401.44 72.49C400.38 72.48 399.44 71.85 399.02 70.88C398.89 70.43 399.13 70.03 399.44 70.17C399.89 70.44 400.46 70.42 400.89 70.13C401.35 69.74 401.42 69.06 401.05 68.58C400.22 67.7 399.08 67.18 397.87 67.13C396.52 67.03 394.94 68.9 395.32 69.63C395.52 70.01 395.67 70.42 395.77 70.84C396.03 70.34 396.63 70.15 397.13 70.4C397.62 70.65 397.82 71.25 397.57 71.75C397.38 72.12 396.99 72.33 396.58 72.3C397.1 72.49 397.36 73.07 397.17 73.59C396.97 74.11 396.39 74.38 395.87 74.18C395.4 74 395.13 73.51 395.24 73.02C395.27 72.92 395.3 72.83 395.35 72.75C394.88 73.04 394.26 72.9 393.97 72.42C393.83 72.2 393.78 71.93 393.84 71.67C393.96 71.13 394.5 70.79 395.04 70.91C395.04 70.91 395.04 70.91 395.04 70.91C395.13 70.93 395.21 70.96 395.29 71C394.83 69.19 393.5 67.73 391.74 67.1C391.5 67.11 391.27 67.12 391.08 67.13C389.15 67.25 386.59 67.66 386.63 69.03C386.64 69.67 385.89 69.18 385.73 68.71C385.49 67.99 386.42 67.19 385.58 67.56C384.95 67.7 384.33 67.32 384.19 66.69C384.18 66.66 384.17 66.63 384.17 66.59C384.17 66.58 384.17 66.57 384.18 66.55C384.18 66.54 384.17 66.53 384.17 66.51Z" id="a6POOZ75F"></path><path d="M381.92 66.59C381.92 66.14 382.29 65.77 382.74 65.77C383.2 65.78 383.56 66.15 383.55 66.61C383.54 67.05 383.19 67.41 382.74 67.42C382.29 67.42 381.92 67.05 381.92 66.59ZM379.4 66.6C379.4 66.14 379.77 65.77 380.22 65.77C380.67 65.77 381.04 66.14 381.04 66.59C381.04 66.59 381.04 66.59 381.04 66.59C381.04 67.05 380.67 67.41 380.22 67.42C379.77 67.42 379.4 67.05 379.4 66.6ZM376.88 66.59C376.88 66.14 377.24 65.77 377.7 65.77C378.15 65.77 378.52 66.14 378.52 66.59C378.52 67.05 378.15 67.41 377.7 67.42C377.24 67.42 376.88 67.05 376.88 66.59ZM374.35 66.6C374.35 66.14 374.72 65.77 375.17 65.77C375.63 65.77 375.99 66.14 376 66.59C376 66.59 376 66.59 376 66.59C376 67.05 375.63 67.41 375.18 67.42C375.18 67.42 375.18 67.42 375.18 67.42C374.72 67.42 374.35 67.05 374.35 66.6ZM371.84 66.59C371.84 66.14 372.21 65.77 372.66 65.77C373.12 65.78 373.48 66.15 373.47 66.61C373.46 67.05 373.11 67.41 372.66 67.42C372.21 67.42 371.84 67.05 371.84 66.59ZM369.32 66.59C369.32 66.14 369.69 65.77 370.14 65.77C370.59 65.77 370.96 66.14 370.96 66.59C370.96 67.05 370.59 67.41 370.14 67.42C369.69 67.42 369.32 67.05 369.32 66.59ZM366.8 66.59C366.8 66.14 367.16 65.77 367.62 65.77C368.07 65.77 368.44 66.14 368.44 66.59C368.44 67.05 368.07 67.41 367.62 67.42C367.16 67.42 366.8 67.05 366.8 66.59ZM364.27 66.6C364.27 66.15 364.63 65.78 365.09 65.77C365.54 65.77 365.91 66.13 365.92 66.58C365.92 66.59 365.92 66.59 365.92 66.59C365.92 67.04 365.56 67.41 365.1 67.42C364.65 67.42 364.28 67.06 364.27 66.6ZM361.76 66.59C361.76 66.14 362.13 65.77 362.58 65.77C363.04 65.78 363.4 66.15 363.39 66.61C363.38 67.05 363.03 67.41 362.58 67.42C362.13 67.42 361.76 67.05 361.76 66.59ZM359.24 66.59C359.24 66.14 359.61 65.77 360.06 65.77C360.51 65.77 360.88 66.14 360.88 66.59C360.88 67.05 360.51 67.41 360.06 67.42C359.61 67.42 359.24 67.05 359.24 66.59ZM356.72 66.6C356.72 66.14 357.08 65.77 357.54 65.77C357.99 65.77 358.36 66.14 358.36 66.59C358.36 66.59 358.36 66.59 358.36 66.59C358.36 67.05 357.99 67.41 357.54 67.42C357.08 67.42 356.72 67.05 356.72 66.6ZM354.19 66.61C354.19 66.15 354.55 65.78 355 65.77C355.46 65.77 355.83 66.13 355.84 66.58C355.84 66.59 355.84 66.59 355.84 66.59C355.84 67.04 355.48 67.41 355.03 67.42C354.57 67.42 354.2 67.06 354.19 66.61ZM351.68 66.59C351.68 66.14 352.05 65.77 352.5 65.77C352.96 65.77 353.32 66.14 353.32 66.59C353.32 67.05 352.96 67.41 352.5 67.42C352.05 67.42 351.68 67.05 351.68 66.59ZM349.16 66.6C349.16 66.14 349.53 65.77 349.98 65.77C350.43 65.77 350.8 66.14 350.8 66.59C350.8 66.59 350.8 66.59 350.8 66.59C350.8 67.05 350.43 67.41 349.98 67.42C349.53 67.42 349.16 67.05 349.16 66.6ZM346.64 66.59C346.64 66.14 347 65.77 347.46 65.77C347.91 65.77 348.28 66.14 348.28 66.59C348.28 67.05 347.91 67.41 347.46 67.42C347 67.42 346.64 67.05 346.64 66.59ZM344.12 66.59C344.12 66.14 344.49 65.77 344.95 65.77C345.4 65.78 345.76 66.15 345.75 66.61C345.75 67.05 345.39 67.41 344.95 67.42C344.49 67.42 344.12 67.05 344.12 66.59ZM341.6 66.59C341.6 66.14 341.97 65.77 342.42 65.77C342.88 65.77 343.24 66.14 343.24 66.59C343.24 67.05 342.88 67.41 342.42 67.42C341.97 67.42 341.6 67.05 341.6 66.59ZM339.08 66.59C339.08 66.14 339.45 65.77 339.9 65.77C340.35 65.77 340.72 66.14 340.72 66.59C340.72 67.05 340.35 67.41 339.9 67.42C339.45 67.42 339.08 67.05 339.08 66.59ZM336.56 66.59C336.56 66.14 336.92 65.77 337.38 65.77C337.83 65.77 338.2 66.14 338.2 66.59C338.2 67.05 337.83 67.41 337.38 67.42C336.92 67.42 336.56 67.05 336.56 66.59ZM334.04 66.59C334.04 66.14 334.41 65.77 334.87 65.77C335.32 65.77 335.69 66.14 335.69 66.59C335.68 67.05 335.32 67.41 334.87 67.42C334.41 67.42 334.04 67.05 334.04 66.59ZM331.52 66.59C331.52 66.14 331.89 65.77 332.34 65.77C332.8 65.77 333.16 66.14 333.16 66.59C333.16 67.05 332.8 67.41 332.34 67.42C331.89 67.42 331.52 67.05 331.52 66.59ZM329 66.59C329 66.14 329.37 65.77 329.82 65.77C330.27 65.77 330.64 66.14 330.64 66.59C330.64 67.05 330.27 67.41 329.82 67.42C329.37 67.42 329 67.05 329 66.59ZM326.49 66.58C326.5 66.14 326.85 65.78 327.3 65.77C327.75 65.77 328.12 66.14 328.12 66.59C328.12 67.05 327.75 67.42 327.3 67.42C326.84 67.41 326.48 67.03 326.49 66.58ZM323.95 66.6C323.95 66.15 324.31 65.78 324.77 65.77C325.22 65.77 325.59 66.13 325.6 66.58C325.6 66.59 325.6 66.59 325.6 66.59C325.6 67.04 325.24 67.41 324.79 67.42C324.33 67.42 323.96 67.06 323.95 66.6ZM321.44 66.59C321.44 66.14 321.81 65.77 322.26 65.77C322.72 65.77 323.08 66.14 323.08 66.59C323.08 67.05 322.72 67.41 322.26 67.42C321.81 67.42 321.44 67.05 321.44 66.59ZM318.92 66.59C318.92 66.14 319.29 65.77 319.74 65.77C320.19 65.77 320.56 66.14 320.56 66.59C320.56 67.05 320.19 67.41 319.74 67.42C319.29 67.42 318.92 67.05 318.92 66.59ZM316.4 66.59C316.4 66.14 316.77 65.77 317.22 65.77C317.67 65.77 318.04 66.14 318.04 66.59C318.04 67.04 317.68 67.41 317.23 67.42C317.22 67.42 317.22 67.42 317.22 67.42C316.76 67.42 316.4 67.05 316.4 66.59ZM313.87 66.6C313.87 66.15 314.23 65.78 314.69 65.77C315.14 65.77 315.51 66.13 315.52 66.58C315.52 66.59 315.52 66.59 315.52 66.59C315.52 67.04 315.16 67.41 314.71 67.42C314.25 67.42 313.88 67.06 313.87 66.6ZM311.36 66.59C311.36 66.14 311.73 65.77 312.18 65.77C312.64 65.77 313 66.14 313 66.59C313 67.05 312.64 67.41 312.18 67.42C311.73 67.42 311.36 67.05 311.36 66.59ZM308.84 66.59C308.84 66.14 309.21 65.77 309.66 65.77C310.11 65.77 310.48 66.14 310.48 66.59C310.48 67.05 310.11 67.41 309.66 67.42C309.21 67.42 308.84 67.05 308.84 66.59ZM306.32 66.59C306.32 66.14 306.68 65.77 307.14 65.77C307.59 65.77 307.96 66.14 307.96 66.59C307.96 67.04 307.6 67.41 307.15 67.42C307.14 67.42 307.14 67.42 307.14 67.42C306.69 67.42 306.32 67.05 306.32 66.59ZM303.81 66.59C303.81 66.14 304.17 65.77 304.63 65.77C305.08 65.77 305.45 66.14 305.45 66.59C305.44 67.05 305.08 67.41 304.63 67.42C304.17 67.42 303.8 67.05 303.81 66.59ZM301.28 66.59C301.28 66.14 301.65 65.77 302.1 65.77C302.56 65.77 302.92 66.14 302.92 66.59C302.92 67.05 302.56 67.41 302.1 67.42C301.65 67.42 301.28 67.05 301.28 66.59ZM298.76 66.59C298.76 66.14 299.13 65.77 299.58 65.77C300.03 65.77 300.4 66.14 300.4 66.59C300.4 67.05 300.03 67.41 299.58 67.42C299.13 67.42 298.76 67.05 298.76 66.59ZM296.24 66.6C296.23 66.15 296.59 65.78 297.05 65.77C297.5 65.77 297.87 66.13 297.88 66.58C297.88 66.59 297.88 66.59 297.88 66.59C297.88 67.04 297.52 67.41 297.07 67.42C296.62 67.42 296.24 67.06 296.24 66.6ZM293.72 66.59C293.72 66.14 294.09 65.77 294.55 65.77C295 65.77 295.37 66.14 295.37 66.59C295.36 67.05 295 67.41 294.55 67.42C294.09 67.42 293.72 67.05 293.72 66.59Z" id="b4gjltP41H"></path><path d="M405.31 21.68C405.18 23.69 406.7 25.42 408.71 25.55C408.79 25.56 408.87 25.56 408.94 25.56C410.9 25.58 412.51 24.01 412.53 22.05C412.53 21.96 412.53 21.87 412.52 21.78C412.52 19.76 411.66 19.26 410.1 18.35C410 18.3 409.85 18.2 409.85 18.05C409.85 17.85 410.61 16.84 412.47 16.84C416 16.84 416.6 20.37 416.6 22.79C416.6 24.7 416.25 26.62 414.89 30.55C413.13 35.54 413.08 36.6 412.98 41.03C412.98 41.03 412.98 41.04 412.98 41.04C412.97 41.51 413.35 41.9 413.82 41.9C414.3 41.91 414.68 41.53 414.69 41.05C414.69 41.05 414.69 41.04 414.69 41.04C414.69 35.59 415.65 33.47 419.23 30.4C421.75 28.18 423.61 26.47 423.61 22.99C423.61 19.16 420.94 14.98 414.64 14.98C409.45 14.98 405.31 17.9 405.31 21.68ZM418.48 45.14C418.48 44.36 416.48 43.74 414.02 43.74C411.56 43.74 409.57 44.36 409.57 45.14C409.57 45.21 409.57 45.82 409.57 45.9C409 45.9 408.44 46.09 408 46.45C407.62 46.81 407.42 47.32 407.44 47.84C407.51 49.38 408.53 50.71 410 51.18C410.2 51.68 410.51 52.13 410.9 52.5C410.9 52.54 410.9 52.87 410.9 52.91C410.9 53.68 412.3 54.3 414.02 54.3C415.75 54.3 417.15 53.68 417.15 52.91C417.15 52.87 417.15 52.54 417.15 52.5C418.62 51.11 418.48 48.84 418.48 48.06C418.48 48.06 418.48 45.43 418.48 45.14ZM408.54 47.05C408.83 46.82 409.2 46.7 409.57 46.7C409.57 46.84 409.57 47.93 409.57 48.06C409.54 48.75 409.58 49.44 409.69 50.12C408.82 49.7 408.26 48.82 408.24 47.84C408.22 47.55 408.33 47.26 408.54 47.05ZM410.45 45.13C410.45 44.7 412.05 44.35 414.02 44.35C415.99 44.35 417.59 44.7 417.59 45.13C417.59 45.57 415.99 45.92 414.02 45.92C412.05 45.92 410.45 45.57 410.45 45.13Z" id="abct6msHG"></path></defs><g><g><use xlink:href="#f8x4oKlXr" opacity="1" fill="#955e4b" fill-opacity="1"></use><g><use xlink:href="#f8x4oKlXr" opacity="1" fill-opacity="0" stroke="#000000" stroke-width="1" stroke-opacity="0"></use></g></g><g><use xlink:href="#a1lkE0rE9" opacity="1" fill="#955e4b" fill-opacity="1"></use><g><use xlink:href="#a1lkE0rE9" opacity="1" fill-opacity="0" stroke="#000000" stroke-width="1" stroke-opacity="0"></use></g></g><g><use xlink:href="#aHFvrlpUD" opacity="1" fill="#955e4b" fill-opacity="1"></use><g><use xlink:href="#aHFvrlpUD" opacity="1" fill-opacity="0" stroke="#000000" stroke-width="1" stroke-opacity="0"></use></g></g><g><use xlink:href="#iBQGNalmD" opacity="1" fill="#955e4b" fill-opacity="1"></use><g><use xlink:href="#iBQGNalmD" opacity="1" fill-opacity="0" stroke="#000000" stroke-width="1" stroke-opacity="0"></use></g></g><g><use xlink:href="#edIWdjiUW" opacity="1" fill="#955e4b" fill-opacity="1"></use><g><use xlink:href="#edIWdjiUW" opacity="1" fill-opacity="0" stroke="#000000" stroke-width="1" stroke-opacity="0"></use></g></g><g><use xlink:href="#aIjDgyPm0" opacity="1" fill="#955e4b" fill-opacity="1"></use><g><use xlink:href="#aIjDgyPm0" opacity="1" fill-opacity="0" stroke="#000000" stroke-width="1" stroke-opacity="0"></use></g></g><g><use xlink:href="#e1uPR85Kb9" opacity="1" fill="#955e4b" fill-opacity="1"></use><g><use xlink:href="#e1uPR85Kb9" opacity="1" fill-opacity="0" stroke="#000000" stroke-width="1" stroke-opacity="0"></use></g></g><g><use xlink:href="#aWwIUXhsu" opacity="1" fill="#955e4b" fill-opacity="1"></use><g><use xlink:href="#aWwIUXhsu" opacity="1" fill-opacity="0" stroke="#000000" stroke-width="1" stroke-opacity="0"></use></g></g><g><use xlink:href="#c6HoaRzP0" opacity="1" fill="#955e4b" fill-opacity="1"></use><g><use xlink:href="#c6HoaRzP0" opacity="1" fill-opacity="0" stroke="#000000" stroke-width="1" stroke-opacity="0"></use></g></g><g><use xlink:href="#a1grzoXCXn" opacity="1" fill="#955e4b" fill-opacity="1"></use><g><use xlink:href="#a1grzoXCXn" opacity="1" fill-opacity="0" stroke="#000000" stroke-width="1" stroke-opacity="0"></use></g></g><g><use xlink:href="#b6n2wKdJc" opacity="1" fill="#955e4b" fill-opacity="1"></use><g><use xlink:href="#b6n2wKdJc" opacity="1" fill-opacity="0" stroke="#000000" stroke-width="1" stroke-opacity="0"></use></g></g><g><use xlink:href="#j356dRZHj" opacity="1" fill="#955e4b" fill-opacity="1"></use><g><use xlink:href="#j356dRZHj" opacity="1" fill-opacity="0" stroke="#000000" stroke-width="1" stroke-opacity="0"></use></g></g><g><use xlink:href="#a5zwqxUDu" opacity="1" fill="#955e4b" fill-opacity="1"></use><g><use xlink:href="#a5zwqxUDu" opacity="1" fill-opacity="0" stroke="#000000" stroke-width="1" stroke-opacity="0"></use></g></g><g><use xlink:href="#eBmQSmy7R" opacity="1" fill="#955e4b" fill-opacity="1"></use><g><use xlink:href="#eBmQSmy7R" opacity="1" fill-opacity="0" stroke="#000000" stroke-width="1" stroke-opacity="0"></use></g></g><g><use xlink:href="#bwtdFd0D8" opacity="1" fill="#955e4b" fill-opacity="1"></use><g><use xlink:href="#bwtdFd0D8" opacity="1" fill-opacity="0" stroke="#000000" stroke-width="1" stroke-opacity="0"></use></g></g><g><use xlink:href="#d21r0aD38E" opacity="1" fill="#955e4b" fill-opacity="1"></use><g><use xlink:href="#d21r0aD38E" opacity="1" fill-opacity="0" stroke="#000000" stroke-width="1" stroke-opacity="0"></use></g></g><g><use xlink:href="#f2NZvH2yuL" opacity="1" fill="#955e4b" fill-opacity="1"></use><g><use xlink:href="#f2NZvH2yuL" opacity="1" fill-opacity="0" stroke="#000000" stroke-width="1" stroke-opacity="0"></use></g></g><g><use xlink:href="#e2QCgIlcmi" opacity="1" fill="#955e4b" fill-opacity="1"></use><g><use xlink:href="#e2QCgIlcmi" opacity="1" fill-opacity="0" stroke="#000000" stroke-width="1" stroke-opacity="0"></use></g></g><g><use xlink:href="#b5G3OC8ZgZ" opacity="1" fill="#955e4b" fill-opacity="1"></use><g><use xlink:href="#b5G3OC8ZgZ" opacity="1" fill-opacity="0" stroke="#000000" stroke-width="1" stroke-opacity="0"></use></g></g><g><use xlink:href="#d1cODhFkuD" opacity="1" fill="#955e4b" fill-opacity="1"></use><g><use xlink:href="#d1cODhFkuD" opacity="1" fill-opacity="0" stroke="#000000" stroke-width="1" stroke-opacity="0"></use></g></g><g><use xlink:href="#h2f08dU8ll" opacity="1" fill="#955e4b" fill-opacity="1"></use><g><use xlink:href="#h2f08dU8ll" opacity="1" fill-opacity="0" stroke="#000000" stroke-width="1" stroke-opacity="0"></use></g></g><g><use xlink:href="#evK1t69q" opacity="1" fill="#955e4b" fill-opacity="1"></use><g><use xlink:href="#evK1t69q" opacity="1" fill-opacity="0" stroke="#000000" stroke-width="1" stroke-opacity="0"></use></g></g><g><use xlink:href="#b264TN5Uek" opacity="1" fill="#955e4b" fill-opacity="1"></use><g><use xlink:href="#b264TN5Uek" opacity="1" fill-opacity="0" stroke="#000000" stroke-width="1" stroke-opacity="0"></use></g></g><g><use xlink:href="#e1h8OUMsMA" opacity="1" fill="#955e4b" fill-opacity="1"></use><g><use xlink:href="#e1h8OUMsMA" opacity="1" fill-opacity="0" stroke="#000000" stroke-width="1" stroke-opacity="0"></use></g></g><g><use xlink:href="#frJmiJqSR" opacity="1" fill="#955e4b" fill-opacity="1"></use><g><use xlink:href="#frJmiJqSR" opacity="1" fill-opacity="0" stroke="#000000" stroke-width="1" stroke-opacity="0"></use></g></g><g><use xlink:href="#dpahl9FGv" opacity="1" fill="#955e4b" fill-opacity="1"></use><g><use xlink:href="#dpahl9FGv" opacity="1" fill-opacity="0" stroke="#000000" stroke-width="1" stroke-opacity="0"></use></g></g><g><use xlink:href="#g4yjlW8DAE" opacity="1" fill="#955e4b" fill-opacity="1"></use><g><use xlink:href="#g4yjlW8DAE" opacity="1" fill-opacity="0" stroke="#000000" stroke-width="1" stroke-opacity="0"></use></g></g><g><use xlink:href="#e2F1P3YzGf" opacity="1" fill="#955e4b" fill-opacity="1"></use><g><use xlink:href="#e2F1P3YzGf" opacity="1" fill-opacity="0" stroke="#000000" stroke-width="1" stroke-opacity="0"></use></g></g><g><use xlink:href="#a1f2RUU4Vk" opacity="1" fill="#955e4b" fill-opacity="1"></use><g><use xlink:href="#a1f2RUU4Vk" opacity="1" fill-opacity="0" stroke="#000000" stroke-width="1" stroke-opacity="0"></use></g></g><g><use xlink:href="#c34tCFLWig" opacity="1" fill="#955e4b" fill-opacity="1"></use><g><use xlink:href="#c34tCFLWig" opacity="1" fill-opacity="0" stroke="#000000" stroke-width="1" stroke-opacity="0"></use></g></g><g><use xlink:href="#aW1NCoAav" opacity="1" fill="#955e4b" fill-opacity="1"></use><g><use xlink:href="#aW1NCoAav" opacity="1" fill-opacity="0" stroke="#000000" stroke-width="1" stroke-opacity="0"></use></g></g><g><use xlink:href="#iwyiNHLW0" opacity="1" fill="#955e4b" fill-opacity="1"></use><g><use xlink:href="#iwyiNHLW0" opacity="1" fill-opacity="0" stroke="#000000" stroke-width="1" stroke-opacity="0"></use></g></g><g><use xlink:href="#d67xvMSVm3" opacity="1" fill="#955e4b" fill-opacity="1"></use><g><use xlink:href="#d67xvMSVm3" opacity="1" fill-opacity="0" stroke="#000000" stroke-width="1" stroke-opacity="0"></use></g></g><g><use xlink:href="#aWyAhctUD" opacity="1" fill="#955e4b" fill-opacity="1"></use><g><use xlink:href="#aWyAhctUD" opacity="1" fill-opacity="0" stroke="#000000" stroke-width="1" stroke-opacity="0"></use></g></g><g><use xlink:href="#a1FVztietU" opacity="1" fill="#955e4b" fill-opacity="1"></use><g><use xlink:href="#a1FVztietU" opacity="1" fill-opacity="0" stroke="#000000" stroke-width="1" stroke-opacity="0"></use></g></g><g><use xlink:href="#aOSLIf9MU" opacity="1" fill="#955e4b" fill-opacity="1"></use><g><use xlink:href="#aOSLIf9MU" opacity="1" fill-opacity="0" stroke="#000000" stroke-width="1" stroke-opacity="0"></use></g></g><g><use xlink:href="#b4YH49KazT" opacity="1" fill="#955e4b" fill-opacity="1"></use><g><use xlink:href="#b4YH49KazT" opacity="1" fill-opacity="0" stroke="#000000" stroke-width="1" stroke-opacity="0"></use></g></g><g><use xlink:href="#b17HvzNi4q" opacity="1" fill="#955e4b" fill-opacity="1"></use><g><use xlink:href="#b17HvzNi4q" opacity="1" fill-opacity="0" stroke="#000000" stroke-width="1" stroke-opacity="0"></use></g></g><g><use xlink:href="#c3sKuKGg0g" opacity="1" fill="#955e4b" fill-opacity="1"></use><g><use xlink:href="#c3sKuKGg0g" opacity="1" fill-opacity="0" stroke="#000000" stroke-width="1" stroke-opacity="0"></use></g></g><g><use xlink:href="#b2rTIpHY85" opacity="1" fill="#955e4b" fill-opacity="1"></use><g><use xlink:href="#b2rTIpHY85" opacity="1" fill-opacity="0" stroke="#000000" stroke-width="1" stroke-opacity="0"></use></g></g><g><use xlink:href="#a6POOZ75F" opacity="1" fill="#955e4b" fill-opacity="1"></use><g><use xlink:href="#a6POOZ75F" opacity="1" fill-opacity="0" stroke="#000000" stroke-width="1" stroke-opacity="0"></use></g></g><g><use xlink:href="#b4gjltP41H" opacity="1" fill="#955e4b" fill-opacity="1"></use><g><use xlink:href="#b4gjltP41H" opacity="1" fill-opacity="0" stroke="#000000" stroke-width="1" stroke-opacity="0"></use></g></g><g><use xlink:href="#abct6msHG" opacity="1" fill="#955e4b" fill-opacity="1"></use><g><use xlink:href="#abct6msHG" opacity="1" fill-opacity="0" stroke="#000000" stroke-width="1" stroke-opacity="0"></use></g></g></g></svg>